<svg width="46" height="35" viewBox="0 0 46 35" fill="none" xmlns="http://www.w3.org/2000/svg">
<path d="M31.12 34H22.912L9.184 13.216V34H0.976V0.303999H9.184L22.912 21.184V0.303999H31.12V34ZM40.9098 34.384C39.4698 34.384 38.2858 33.968 37.3578 33.136C36.4618 32.272 36.0138 31.216 36.0138 29.968C36.0138 28.688 36.4618 27.616 37.3578 26.752C38.2858 25.888 39.4698 25.456 40.9098 25.456C42.3178 25.456 43.4698 25.888 44.3658 26.752C45.2938 27.616 45.7578 28.688 45.7578 29.968C45.7578 31.216 45.2938 32.272 44.3658 33.136C43.4698 33.968 42.3178 34.384 40.9098 34.384Z" fill="black"/>
</svg>
