<svg width="537" height="537" viewBox="0 0 537 537" fill="none" xmlns="http://www.w3.org/2000/svg">
<rect x="1.5" y="1.5" width="534" height="534" rx="12.5" fill="white" stroke="black" stroke-width="3"/>
<path d="M45.56 364L49.74 350H52.26L56.44 364H54.14L53.2 360.64H48.8L47.86 364H45.56ZM50.94 353L49.28 358.94H52.72L51.06 353H50.94ZM57.8522 364V350H60.0922L62.9922 356.32L65.8922 350H68.1322V364H66.1122V354.04L63.8322 359.04H62.1522L59.8722 354.06V364H57.8522ZM70.4044 364V350H75.1444C76.211 350 77.091 350.187 77.7844 350.56C78.4777 350.92 78.991 351.42 79.3244 352.06C79.6577 352.7 79.8244 353.433 79.8244 354.26C79.8244 355.087 79.6577 355.82 79.3244 356.46C78.991 357.1 78.4777 357.607 77.7844 357.98C77.091 358.34 76.211 358.52 75.1444 358.52H72.5244V364H70.4044ZM72.5244 356.62H75.0444C75.951 356.62 76.611 356.407 77.0244 355.98C77.451 355.553 77.6644 354.98 77.6644 354.26C77.6644 353.553 77.451 352.987 77.0244 352.56C76.611 352.12 75.951 351.9 75.0444 351.9H72.5244V356.62ZM82.5966 364V350H84.7166V362.1H91.6166V364H82.5966ZM94.8688 364V362.12H97.9088V351.88H94.9088V350H103.029V351.88H100.029V362.12H103.069V364H94.8688ZM106.641 364V350H115.621V351.98H108.761V356.26H114.521V358.12H108.761V364H106.641ZM121.893 364V358.68L117.273 350H119.693L122.953 356.44L126.213 350H128.633L124.013 358.68V364H121.893Z" fill="black"/>
<path d="M51.12 412.24C50.16 412.24 49.3133 412.027 48.58 411.6C47.8467 411.16 47.2733 410.553 46.86 409.78C46.4467 409.007 46.24 408.107 46.24 407.08C46.24 406.04 46.44 405.127 46.84 404.34C47.2533 403.553 47.8267 402.94 48.56 402.5C49.3067 402.06 50.1667 401.84 51.14 401.84C52.1 401.84 52.9267 402.06 53.62 402.5C54.3133 402.927 54.8467 403.5 55.22 404.22C55.6067 404.94 55.8 405.733 55.8 406.6C55.8 406.733 55.8 406.88 55.8 407.04C55.8 407.187 55.7933 407.353 55.78 407.54H48.32C48.3867 408.46 48.6867 409.16 49.22 409.64C49.7533 410.107 50.38 410.34 51.1 410.34C51.7267 410.34 52.22 410.213 52.58 409.96C52.9533 409.693 53.2267 409.333 53.4 408.88H55.54C55.3 409.827 54.8 410.627 54.04 411.28C53.28 411.92 52.3067 412.24 51.12 412.24ZM51.12 403.68C50.4667 403.68 49.8867 403.88 49.38 404.28C48.8733 404.667 48.5467 405.213 48.4 405.92H53.68C53.6267 405.253 53.3667 404.713 52.9 404.3C52.4333 403.887 51.84 403.68 51.12 403.68ZM58.3522 412V410.16H61.6722V400.1C61.6722 399.66 61.4589 399.44 61.0322 399.44H58.6322V397.6H61.4122C62.1855 397.6 62.7722 397.807 63.1722 398.22C63.5855 398.62 63.7922 399.207 63.7922 399.98V410.16H67.1322V412H58.3522ZM75.1044 412.24C74.1444 412.24 73.2977 412.027 72.5644 411.6C71.831 411.16 71.2577 410.553 70.8444 409.78C70.431 409.007 70.2244 408.107 70.2244 407.08C70.2244 406.04 70.4244 405.127 70.8244 404.34C71.2377 403.553 71.811 402.94 72.5444 402.5C73.291 402.06 74.151 401.84 75.1244 401.84C76.0844 401.84 76.911 402.06 77.6044 402.5C78.2977 402.927 78.831 403.5 79.2044 404.22C79.591 404.94 79.7844 405.733 79.7844 406.6C79.7844 406.733 79.7844 406.88 79.7844 407.04C79.7844 407.187 79.7777 407.353 79.7644 407.54H72.3044C72.371 408.46 72.671 409.16 73.2044 409.64C73.7377 410.107 74.3644 410.34 75.0844 410.34C75.711 410.34 76.2044 410.213 76.5644 409.96C76.9377 409.693 77.211 409.333 77.3844 408.88H79.5244C79.2844 409.827 78.7844 410.627 78.0244 411.28C77.2644 411.92 76.291 412.24 75.1044 412.24ZM75.1044 403.68C74.451 403.68 73.871 403.88 73.3644 404.28C72.8577 404.667 72.531 405.213 72.3844 405.92H77.6644C77.611 405.253 77.351 404.713 76.8844 404.3C76.4177 403.887 75.8244 403.68 75.1044 403.68ZM81.4766 412V402.08H83.2366L83.4166 403.24H83.5166C83.6899 402.827 83.9566 402.493 84.3166 402.24C84.6766 401.973 85.1032 401.84 85.5966 401.84C86.0766 401.84 86.4966 401.96 86.8566 402.2C87.2166 402.44 87.4832 402.787 87.6566 403.24H87.7366C87.9099 402.84 88.1832 402.507 88.5566 402.24C88.9299 401.973 89.3899 401.84 89.9366 401.84C90.6699 401.84 91.2232 402.08 91.5966 402.56C91.9832 403.04 92.1766 403.713 92.1766 404.58V412H90.1366V405C90.1366 404.6 90.0499 404.287 89.8766 404.06C89.7166 403.82 89.4566 403.7 89.0966 403.7C88.7366 403.7 88.4366 403.84 88.1966 404.12C87.9699 404.4 87.8566 404.793 87.8566 405.3V412H85.7966V405C85.7966 404.6 85.7166 404.287 85.5566 404.06C85.3966 403.82 85.1366 403.7 84.7766 403.7C84.4166 403.7 84.1166 403.84 83.8766 404.12C83.6366 404.4 83.5166 404.793 83.5166 405.3V412H81.4766ZM99.0888 412.24C98.1288 412.24 97.2821 412.027 96.5488 411.6C95.8154 411.16 95.2421 410.553 94.8288 409.78C94.4154 409.007 94.2088 408.107 94.2088 407.08C94.2088 406.04 94.4088 405.127 94.8088 404.34C95.2221 403.553 95.7954 402.94 96.5288 402.5C97.2754 402.06 98.1354 401.84 99.1088 401.84C100.069 401.84 100.895 402.06 101.589 402.5C102.282 402.927 102.815 403.5 103.189 404.22C103.575 404.94 103.769 405.733 103.769 406.6C103.769 406.733 103.769 406.88 103.769 407.04C103.769 407.187 103.762 407.353 103.749 407.54H96.2888C96.3554 408.46 96.6554 409.16 97.1888 409.64C97.7221 410.107 98.3488 410.34 99.0688 410.34C99.6954 410.34 100.189 410.213 100.549 409.96C100.922 409.693 101.195 409.333 101.369 408.88H103.509C103.269 409.827 102.769 410.627 102.009 411.28C101.249 411.92 100.275 412.24 99.0888 412.24ZM99.0888 403.68C98.4354 403.68 97.8554 403.88 97.3488 404.28C96.8421 404.667 96.5154 405.213 96.3688 405.92H101.649C101.595 405.253 101.335 404.713 100.869 404.3C100.402 403.887 99.8088 403.68 99.0888 403.68ZM106.521 412V402.08H108.361L108.541 403.56H108.641C108.908 403.08 109.321 402.673 109.881 402.34C110.441 402.007 111.088 401.84 111.821 401.84C113.034 401.84 113.948 402.207 114.561 402.94C115.174 403.673 115.481 404.753 115.481 406.18V412H113.361V406.44C113.361 405.613 113.188 404.973 112.841 404.52C112.494 404.067 111.948 403.84 111.201 403.84C110.468 403.84 109.854 404.087 109.361 404.58C108.881 405.073 108.641 405.787 108.641 406.72V412H106.521ZM124.033 412C123.06 412 122.286 411.767 121.713 411.3C121.14 410.82 120.853 409.973 120.853 408.76V403.88H118.353V402.08H119.833C120.513 402.08 120.913 401.747 121.033 401.08L121.333 399.48H122.973V402.08H126.893V403.88H122.973V408.72C122.973 409.24 123.086 409.607 123.313 409.82C123.553 410.02 123.96 410.12 124.533 410.12H126.853V412H124.033ZM134.065 412.24C132.865 412.24 131.952 411.873 131.325 411.14C130.712 410.393 130.405 409.313 130.405 407.9V402.08H132.525V407.64C132.525 408.453 132.699 409.093 133.045 409.56C133.405 410.013 133.952 410.24 134.685 410.24C135.419 410.24 136.032 409.993 136.525 409.5C137.019 409.007 137.265 408.293 137.265 407.36V402.08H139.385V412H137.545L137.365 410.52H137.265C136.999 411 136.585 411.407 136.025 411.74C135.465 412.073 134.812 412.24 134.065 412.24ZM141.438 412V402.08H143.198L143.378 403.24H143.478C143.651 402.827 143.918 402.493 144.278 402.24C144.638 401.973 145.064 401.84 145.558 401.84C146.038 401.84 146.458 401.96 146.817 402.2C147.178 402.44 147.444 402.787 147.618 403.24H147.698C147.871 402.84 148.144 402.507 148.518 402.24C148.891 401.973 149.351 401.84 149.898 401.84C150.631 401.84 151.184 402.08 151.558 402.56C151.944 403.04 152.138 403.713 152.138 404.58V412H150.098V405C150.098 404.6 150.011 404.287 149.838 404.06C149.678 403.82 149.418 403.7 149.058 403.7C148.698 403.7 148.398 403.84 148.158 404.12C147.931 404.4 147.818 404.793 147.818 405.3V412H145.758V405C145.758 404.6 145.678 404.287 145.518 404.06C145.358 403.82 145.098 403.7 144.738 403.7C144.378 403.7 144.078 403.84 143.838 404.12C143.598 404.4 143.478 404.793 143.478 405.3V412H141.438ZM158.93 412.12C158.436 412.12 158.016 411.96 157.67 411.64C157.323 411.307 157.15 410.907 157.15 410.44C157.15 409.973 157.323 409.58 157.67 409.26C158.016 408.94 158.436 408.78 158.93 408.78C159.436 408.78 159.856 408.94 160.19 409.26C160.536 409.58 160.71 409.973 160.71 410.44C160.71 410.907 160.536 411.307 160.19 411.64C159.856 411.96 159.436 412.12 158.93 412.12ZM181.654 412L177.334 398H179.614L182.914 409.2L186.214 398H188.494L184.174 412H181.654ZM195.026 412.24C194.066 412.24 193.22 412.027 192.486 411.6C191.753 411.16 191.18 410.553 190.766 409.78C190.353 409.007 190.146 408.107 190.146 407.08C190.146 406.04 190.346 405.127 190.746 404.34C191.16 403.553 191.733 402.94 192.466 402.5C193.213 402.06 194.073 401.84 195.046 401.84C196.006 401.84 196.833 402.06 197.526 402.5C198.22 402.927 198.753 403.5 199.126 404.22C199.513 404.94 199.706 405.733 199.706 406.6C199.706 406.733 199.706 406.88 199.706 407.04C199.706 407.187 199.7 407.353 199.686 407.54H192.226C192.293 408.46 192.593 409.16 193.126 409.64C193.66 410.107 194.286 410.34 195.006 410.34C195.633 410.34 196.126 410.213 196.486 409.96C196.86 409.693 197.133 409.333 197.306 408.88H199.446C199.206 409.827 198.706 410.627 197.946 411.28C197.186 411.92 196.213 412.24 195.026 412.24ZM195.026 403.68C194.373 403.68 193.793 403.88 193.286 404.28C192.78 404.667 192.453 405.213 192.306 405.92H197.586C197.533 405.253 197.273 404.713 196.806 404.3C196.34 403.887 195.746 403.68 195.026 403.68ZM206.978 412.24C205.672 412.24 204.632 411.933 203.858 411.32C203.085 410.707 202.645 409.893 202.538 408.88H204.718C204.798 409.347 205.032 409.727 205.418 410.02C205.818 410.313 206.345 410.46 206.998 410.46C207.625 410.46 208.105 410.333 208.438 410.08C208.785 409.813 208.958 409.507 208.958 409.16C208.958 408.653 208.752 408.307 208.338 408.12C207.938 407.933 207.345 407.793 206.558 407.7C205.878 407.62 205.258 407.467 204.698 407.24C204.152 407 203.718 406.68 203.398 406.28C203.078 405.867 202.918 405.353 202.918 404.74C202.918 403.873 203.258 403.173 203.938 402.64C204.618 402.107 205.565 401.84 206.778 401.84C207.992 401.84 208.932 402.113 209.598 402.66C210.265 403.207 210.652 403.953 210.758 404.9H208.718C208.665 404.5 208.458 404.187 208.098 403.96C207.738 403.72 207.292 403.6 206.758 403.6C206.212 403.6 205.778 403.707 205.458 403.92C205.138 404.12 204.978 404.387 204.978 404.72C204.978 405.44 205.752 405.88 207.298 406.04C208.032 406.12 208.685 406.26 209.258 406.46C209.832 406.647 210.285 406.947 210.618 407.36C210.952 407.76 211.118 408.327 211.118 409.06C211.132 409.66 210.958 410.2 210.598 410.68C210.252 411.16 209.765 411.54 209.138 411.82C208.525 412.1 207.805 412.24 206.978 412.24ZM219.971 412C218.997 412 218.224 411.767 217.651 411.3C217.077 410.82 216.791 409.973 216.791 408.76V403.88H214.291V402.08H215.771C216.451 402.08 216.851 401.747 216.971 401.08L217.271 399.48H218.911V402.08H222.831V403.88H218.911V408.72C218.911 409.24 219.024 409.607 219.251 409.82C219.491 410.02 219.897 410.12 220.471 410.12H222.791V412H219.971ZM230.683 400.56C230.216 400.56 229.823 400.413 229.503 400.12C229.196 399.813 229.043 399.44 229.043 399C229.043 398.56 229.196 398.193 229.503 397.9C229.823 397.607 230.216 397.46 230.683 397.46C231.163 397.46 231.556 397.607 231.863 397.9C232.183 398.193 232.343 398.56 232.343 399C232.343 399.44 232.183 399.813 231.863 400.12C231.556 400.413 231.163 400.56 230.683 400.56ZM226.703 412V410.16H229.823V404.58C229.823 404.14 229.609 403.92 229.183 403.92H226.983V402.08H229.563C230.389 402.08 230.989 402.273 231.363 402.66C231.749 403.033 231.943 403.633 231.943 404.46V410.16H235.063V412H226.703ZM243.415 412.24C242.682 412.24 242.062 412.093 241.555 411.8C241.062 411.493 240.682 411.073 240.415 410.54H240.295L240.115 412H238.295V397.6H240.415V403.36C240.655 402.96 241.035 402.607 241.555 402.3C242.075 401.993 242.695 401.84 243.415 401.84C244.242 401.84 244.982 402.04 245.635 402.44C246.288 402.827 246.802 403.407 247.175 404.18C247.562 404.953 247.755 405.907 247.755 407.04C247.755 408.173 247.562 409.127 247.175 409.9C246.802 410.673 246.288 411.26 245.635 411.66C244.982 412.047 244.242 412.24 243.415 412.24ZM242.975 410.22C243.735 410.22 244.362 409.96 244.855 409.44C245.362 408.907 245.615 408.113 245.615 407.06C245.615 405.993 245.362 405.193 244.855 404.66C244.362 404.127 243.735 403.86 242.975 403.86C242.215 403.86 241.582 404.127 241.075 404.66C240.582 405.18 240.335 405.973 240.335 407.04C240.335 408.093 240.582 408.887 241.075 409.42C241.582 409.953 242.215 410.22 242.975 410.22ZM253.987 412.24C252.787 412.24 251.874 411.873 251.247 411.14C250.634 410.393 250.327 409.313 250.327 407.9V402.08H252.447V407.64C252.447 408.453 252.621 409.093 252.967 409.56C253.327 410.013 253.874 410.24 254.607 410.24C255.341 410.24 255.954 409.993 256.447 409.5C256.941 409.007 257.187 408.293 257.187 407.36V402.08H259.307V412H257.467L257.287 410.52H257.187C256.921 411 256.507 411.407 255.947 411.74C255.387 412.073 254.734 412.24 253.987 412.24ZM262.219 412V410.16H265.539V400.1C265.539 399.66 265.326 399.44 264.899 399.44H262.499V397.6H265.279C266.053 397.6 266.639 397.807 267.039 398.22C267.453 398.62 267.659 399.207 267.659 399.98V410.16H270.999V412H262.219ZM277.972 412.24C276.772 412.24 275.858 411.873 275.232 411.14C274.618 410.393 274.312 409.313 274.312 407.9V402.08H276.432V407.64C276.432 408.453 276.605 409.093 276.952 409.56C277.312 410.013 277.858 410.24 278.592 410.24C279.325 410.24 279.938 409.993 280.432 409.5C280.925 409.007 281.172 408.293 281.172 407.36V402.08H283.292V412H281.452L281.272 410.52H281.172C280.905 411 280.492 411.407 279.932 411.74C279.372 412.073 278.718 412.24 277.972 412.24ZM285.344 412V402.08H287.104L287.284 403.24H287.384C287.557 402.827 287.824 402.493 288.184 402.24C288.544 401.973 288.97 401.84 289.464 401.84C289.944 401.84 290.364 401.96 290.724 402.2C291.084 402.44 291.35 402.787 291.524 403.24H291.604C291.777 402.84 292.05 402.507 292.424 402.24C292.797 401.973 293.257 401.84 293.804 401.84C294.537 401.84 295.09 402.08 295.464 402.56C295.85 403.04 296.044 403.713 296.044 404.58V412H294.004V405C294.004 404.6 293.917 404.287 293.744 404.06C293.584 403.82 293.324 403.7 292.964 403.7C292.604 403.7 292.304 403.84 292.064 404.12C291.837 404.4 291.724 404.793 291.724 405.3V412H289.664V405C289.664 404.6 289.584 404.287 289.424 404.06C289.264 403.82 289.004 403.7 288.644 403.7C288.284 403.7 287.984 403.84 287.744 404.12C287.504 404.4 287.384 404.793 287.384 405.3V412H285.344ZM310.208 416.4V402.08H312.048L312.208 403.6H312.328C312.595 403.107 312.995 402.693 313.528 402.36C314.075 402.013 314.721 401.84 315.468 401.84C316.241 401.84 316.948 402.04 317.588 402.44C318.228 402.827 318.735 403.407 319.108 404.18C319.495 404.94 319.688 405.893 319.688 407.04C319.688 408.173 319.488 409.127 319.088 409.9C318.701 410.673 318.175 411.26 317.508 411.66C316.841 412.047 316.095 412.24 315.268 412.24C314.535 412.24 313.921 412.093 313.428 411.8C312.935 411.507 312.568 411.173 312.328 410.8V416.4H310.208ZM314.908 410.22C315.655 410.22 316.275 409.953 316.768 409.42C317.275 408.887 317.528 408.087 317.528 407.02C317.528 405.953 317.275 405.16 316.768 404.64C316.275 404.12 315.655 403.86 314.908 403.86C314.148 403.86 313.515 404.127 313.008 404.66C312.515 405.18 312.268 405.973 312.268 407.04C312.268 408.093 312.515 408.887 313.008 409.42C313.515 409.953 314.148 410.22 314.908 410.22ZM322.18 412V410.16H325.5V400.1C325.5 399.66 325.287 399.44 324.86 399.44H322.46V397.6H325.24C326.014 397.6 326.6 397.807 327 398.22C327.414 398.62 327.62 399.207 327.62 399.98V410.16H330.96V412H322.18ZM337.913 412.24C337.126 412.24 336.466 412.107 335.933 411.84C335.399 411.56 334.999 411.193 334.733 410.74C334.466 410.273 334.333 409.767 334.333 409.22C334.333 408.247 334.686 407.487 335.393 406.94C336.113 406.393 337.126 406.12 338.433 406.12H340.993V405.9C340.993 404.407 340.299 403.66 338.913 403.66C338.339 403.66 337.853 403.787 337.453 404.04C337.066 404.28 336.806 404.673 336.673 405.22H334.553C334.659 404.18 335.106 403.36 335.893 402.76C336.693 402.147 337.699 401.84 338.913 401.84C340.379 401.84 341.446 402.2 342.113 402.92C342.779 403.64 343.113 404.633 343.113 405.9V412H341.313L341.133 410.54H340.993C340.699 411.007 340.333 411.407 339.893 411.74C339.453 412.073 338.793 412.24 337.913 412.24ZM338.313 410.46C339.179 410.46 339.826 410.2 340.253 409.68C340.693 409.147 340.933 408.473 340.973 407.66H338.653C337.893 407.66 337.353 407.787 337.033 408.04C336.726 408.28 336.573 408.62 336.573 409.06C336.573 409.5 336.726 409.847 337.033 410.1C337.353 410.34 337.779 410.46 338.313 410.46ZM351.885 412C350.911 412 350.138 411.767 349.565 411.3C348.991 410.82 348.705 409.973 348.705 408.76V403.88H346.205V402.08H347.685C348.365 402.08 348.765 401.747 348.885 401.08L349.185 399.48H350.825V402.08H354.745V403.88H350.825V408.72C350.825 409.24 350.938 409.607 351.165 409.82C351.405 410.02 351.811 410.12 352.385 410.12H354.705V412H351.885ZM362.917 412.24C361.957 412.24 361.11 412.027 360.377 411.6C359.644 411.16 359.07 410.553 358.657 409.78C358.244 409.007 358.037 408.107 358.037 407.08C358.037 406.04 358.237 405.127 358.637 404.34C359.05 403.553 359.624 402.94 360.357 402.5C361.104 402.06 361.964 401.84 362.937 401.84C363.897 401.84 364.724 402.06 365.417 402.5C366.11 402.927 366.644 403.5 367.017 404.22C367.404 404.94 367.597 405.733 367.597 406.6C367.597 406.733 367.597 406.88 367.597 407.04C367.597 407.187 367.59 407.353 367.577 407.54H360.117C360.184 408.46 360.484 409.16 361.017 409.64C361.55 410.107 362.177 410.34 362.897 410.34C363.524 410.34 364.017 410.213 364.377 409.96C364.75 409.693 365.024 409.333 365.197 408.88H367.337C367.097 409.827 366.597 410.627 365.837 411.28C365.077 411.92 364.104 412.24 362.917 412.24ZM362.917 403.68C362.264 403.68 361.684 403.88 361.177 404.28C360.67 404.667 360.344 405.213 360.197 405.92H365.477C365.424 405.253 365.164 404.713 364.697 404.3C364.23 403.887 363.637 403.68 362.917 403.68ZM373.889 412.24C373.102 412.24 372.442 412.107 371.909 411.84C371.376 411.56 370.976 411.193 370.709 410.74C370.442 410.273 370.309 409.767 370.309 409.22C370.309 408.247 370.662 407.487 371.369 406.94C372.089 406.393 373.102 406.12 374.409 406.12H376.969V405.9C376.969 404.407 376.276 403.66 374.889 403.66C374.316 403.66 373.829 403.787 373.429 404.04C373.042 404.28 372.782 404.673 372.649 405.22H370.529C370.636 404.18 371.082 403.36 371.869 402.76C372.669 402.147 373.676 401.84 374.889 401.84C376.356 401.84 377.422 402.2 378.089 402.92C378.756 403.64 379.089 404.633 379.089 405.9V412H377.289L377.109 410.54H376.969C376.676 411.007 376.309 411.407 375.869 411.74C375.429 412.073 374.769 412.24 373.889 412.24ZM374.289 410.46C375.156 410.46 375.802 410.2 376.229 409.68C376.669 409.147 376.909 408.473 376.949 407.66H374.629C373.869 407.66 373.329 407.787 373.009 408.04C372.702 408.28 372.549 408.62 372.549 409.06C372.549 409.5 372.702 409.847 373.009 410.1C373.329 410.34 373.756 410.46 374.289 410.46ZM394.333 412V402.08H396.173L396.353 403.56H396.453C396.72 403.08 397.133 402.673 397.693 402.34C398.253 402.007 398.9 401.84 399.633 401.84C400.847 401.84 401.76 402.207 402.373 402.94C402.987 403.673 403.293 404.753 403.293 406.18V412H401.173V406.44C401.173 405.613 401 404.973 400.653 404.52C400.307 404.067 399.76 403.84 399.013 403.84C398.28 403.84 397.667 404.087 397.173 404.58C396.693 405.073 396.453 405.787 396.453 406.72V412H394.333ZM409.886 412.24C408.686 412.24 407.772 411.873 407.146 411.14C406.532 410.393 406.226 409.313 406.226 407.9V402.08H408.346V407.64C408.346 408.453 408.519 409.093 408.866 409.56C409.226 410.013 409.772 410.24 410.506 410.24C411.239 410.24 411.852 409.993 412.346 409.5C412.839 409.007 413.086 408.293 413.086 407.36V402.08H415.206V412H413.366L413.186 410.52H413.086C412.819 411 412.406 411.407 411.846 411.74C411.286 412.073 410.632 412.24 409.886 412.24ZM418.118 412V410.16H421.438V400.1C421.438 399.66 421.224 399.44 420.798 399.44H418.398V397.6H421.178C421.951 397.6 422.538 397.807 422.938 398.22C423.351 398.62 423.558 399.207 423.558 399.98V410.16H426.898V412H418.118ZM430.11 412V410.16H433.43V400.1C433.43 399.66 433.217 399.44 432.79 399.44H430.39V397.6H433.17C433.943 397.6 434.53 397.807 434.93 398.22C435.343 398.62 435.55 399.207 435.55 399.98V410.16H438.89V412H430.11ZM445.842 412.24C445.056 412.24 444.396 412.107 443.862 411.84C443.329 411.56 442.929 411.193 442.662 410.74C442.396 410.273 442.262 409.767 442.262 409.22C442.262 408.247 442.616 407.487 443.322 406.94C444.042 406.393 445.056 406.12 446.362 406.12H448.922V405.9C448.922 404.407 448.229 403.66 446.842 403.66C446.269 403.66 445.782 403.787 445.382 404.04C444.996 404.28 444.736 404.673 444.602 405.22H442.482C442.589 404.18 443.036 403.36 443.822 402.76C444.622 402.147 445.629 401.84 446.842 401.84C448.309 401.84 449.376 402.2 450.042 402.92C450.709 403.64 451.042 404.633 451.042 405.9V412H449.242L449.062 410.54H448.922C448.629 411.007 448.262 411.407 447.822 411.74C447.382 412.073 446.722 412.24 445.842 412.24ZM446.242 410.46C447.109 410.46 447.756 410.2 448.182 409.68C448.622 409.147 448.862 408.473 448.902 407.66H446.582C445.822 407.66 445.282 407.787 444.962 408.04C444.656 408.28 444.502 408.62 444.502 409.06C444.502 409.5 444.656 409.847 444.962 410.1C445.282 410.34 445.709 410.46 446.242 410.46ZM49.72 438L45.42 428.08H47.82L51 435.76L54.2 428.08H56.58L52.26 438H49.72ZM62.7922 426.56C62.3255 426.56 61.9322 426.413 61.6122 426.12C61.3055 425.813 61.1522 425.44 61.1522 425C61.1522 424.56 61.3055 424.193 61.6122 423.9C61.9322 423.607 62.3255 423.46 62.7922 423.46C63.2722 423.46 63.6655 423.607 63.9722 423.9C64.2922 424.193 64.4522 424.56 64.4522 425C64.4522 425.44 64.2922 425.813 63.9722 426.12C63.6655 426.413 63.2722 426.56 62.7922 426.56ZM58.8122 438V436.16H61.9322V430.58C61.9322 430.14 61.7189 429.92 61.2922 429.92H59.0922V428.08H61.6722C62.4989 428.08 63.0989 428.273 63.4722 428.66C63.8589 429.033 64.0522 429.633 64.0522 430.46V436.16H67.1722V438H58.8122ZM76.0644 438C75.091 438 74.3177 437.767 73.7444 437.3C73.171 436.82 72.8844 435.973 72.8844 434.76V429.88H70.3844V428.08H71.8644C72.5444 428.08 72.9444 427.747 73.0644 427.08L73.3644 425.48H75.0044V428.08H78.9244V429.88H75.0044V434.72C75.0044 435.24 75.1177 435.607 75.3444 435.82C75.5844 436.02 75.991 436.12 76.5644 436.12H78.8844V438H76.0644ZM86.0766 438.24C85.2899 438.24 84.6299 438.107 84.0966 437.84C83.5632 437.56 83.1632 437.193 82.8966 436.74C82.6299 436.273 82.4966 435.767 82.4966 435.22C82.4966 434.247 82.8499 433.487 83.5566 432.94C84.2766 432.393 85.2899 432.12 86.5966 432.12H89.1566V431.9C89.1566 430.407 88.4632 429.66 87.0766 429.66C86.5032 429.66 86.0166 429.787 85.6166 430.04C85.2299 430.28 84.9699 430.673 84.8366 431.22H82.7166C82.8232 430.18 83.2699 429.36 84.0566 428.76C84.8566 428.147 85.8632 427.84 87.0766 427.84C88.5432 427.84 89.6099 428.2 90.2766 428.92C90.9432 429.64 91.2766 430.633 91.2766 431.9V438H89.4766L89.2966 436.54H89.1566C88.8632 437.007 88.4966 437.407 88.0566 437.74C87.6166 438.073 86.9566 438.24 86.0766 438.24ZM86.4766 436.46C87.3432 436.46 87.9899 436.2 88.4166 435.68C88.8566 435.147 89.0966 434.473 89.1366 433.66H86.8166C86.0566 433.66 85.5166 433.787 85.1966 434.04C84.8899 434.28 84.7366 434.62 84.7366 435.06C84.7366 435.5 84.8899 435.847 85.1966 436.1C85.5166 436.34 85.9432 436.46 86.4766 436.46ZM99.0888 438.24C98.1288 438.24 97.2821 438.027 96.5488 437.6C95.8154 437.16 95.2421 436.553 94.8288 435.78C94.4154 435.007 94.2088 434.107 94.2088 433.08C94.2088 432.04 94.4088 431.127 94.8088 430.34C95.2221 429.553 95.7954 428.94 96.5288 428.5C97.2754 428.06 98.1354 427.84 99.1088 427.84C100.069 427.84 100.895 428.06 101.589 428.5C102.282 428.927 102.815 429.5 103.189 430.22C103.575 430.94 103.769 431.733 103.769 432.6C103.769 432.733 103.769 432.88 103.769 433.04C103.769 433.187 103.762 433.353 103.749 433.54H96.2888C96.3554 434.46 96.6554 435.16 97.1888 435.64C97.7221 436.107 98.3488 436.34 99.0688 436.34C99.6954 436.34 100.189 436.213 100.549 435.96C100.922 435.693 101.195 435.333 101.369 434.88H103.509C103.269 435.827 102.769 436.627 102.009 437.28C101.249 437.92 100.275 438.24 99.0888 438.24ZM99.0888 429.68C98.4354 429.68 97.8554 429.88 97.3488 430.28C96.8421 430.667 96.5154 431.213 96.3688 431.92H101.649C101.595 431.253 101.335 430.713 100.869 430.3C100.402 429.887 99.8088 429.68 99.0888 429.68ZM123.033 438.24C121.726 438.24 120.686 437.933 119.913 437.32C119.14 436.707 118.7 435.893 118.593 434.88H120.773C120.853 435.347 121.086 435.727 121.473 436.02C121.873 436.313 122.4 436.46 123.053 436.46C123.68 436.46 124.16 436.333 124.493 436.08C124.84 435.813 125.013 435.507 125.013 435.16C125.013 434.653 124.806 434.307 124.393 434.12C123.993 433.933 123.4 433.793 122.613 433.7C121.933 433.62 121.313 433.467 120.753 433.24C120.206 433 119.773 432.68 119.453 432.28C119.133 431.867 118.973 431.353 118.973 430.74C118.973 429.873 119.313 429.173 119.993 428.64C120.673 428.107 121.62 427.84 122.833 427.84C124.046 427.84 124.986 428.113 125.653 428.66C126.32 429.207 126.706 429.953 126.813 430.9H124.773C124.72 430.5 124.513 430.187 124.153 429.96C123.793 429.72 123.346 429.6 122.813 429.6C122.266 429.6 121.833 429.707 121.513 429.92C121.193 430.12 121.033 430.387 121.033 430.72C121.033 431.44 121.806 431.88 123.353 432.04C124.086 432.12 124.74 432.26 125.313 432.46C125.886 432.647 126.34 432.947 126.673 433.36C127.006 433.76 127.173 434.327 127.173 435.06C127.186 435.66 127.013 436.2 126.653 436.68C126.306 437.16 125.82 437.54 125.193 437.82C124.58 438.1 123.86 438.24 123.033 438.24ZM135.065 438.24C134.105 438.24 133.259 438.027 132.525 437.6C131.792 437.16 131.219 436.553 130.805 435.78C130.392 435.007 130.185 434.107 130.185 433.08C130.185 432.04 130.385 431.127 130.785 430.34C131.199 429.553 131.772 428.94 132.505 428.5C133.252 428.06 134.112 427.84 135.085 427.84C136.045 427.84 136.872 428.06 137.565 428.5C138.259 428.927 138.792 429.5 139.165 430.22C139.552 430.94 139.745 431.733 139.745 432.6C139.745 432.733 139.745 432.88 139.745 433.04C139.745 433.187 139.739 433.353 139.725 433.54H132.265C132.332 434.46 132.632 435.16 133.165 435.64C133.699 436.107 134.325 436.34 135.045 436.34C135.672 436.34 136.165 436.213 136.525 435.96C136.899 435.693 137.172 435.333 137.345 434.88H139.485C139.245 435.827 138.745 436.627 137.985 437.28C137.225 437.92 136.252 438.24 135.065 438.24ZM135.065 429.68C134.412 429.68 133.832 429.88 133.325 430.28C132.819 430.667 132.492 431.213 132.345 431.92H137.625C137.572 431.253 137.312 430.713 136.845 430.3C136.379 429.887 135.785 429.68 135.065 429.68ZM141.438 438V428.08H143.198L143.378 429.24H143.478C143.651 428.827 143.918 428.493 144.278 428.24C144.638 427.973 145.064 427.84 145.558 427.84C146.038 427.84 146.458 427.96 146.817 428.2C147.178 428.44 147.444 428.787 147.618 429.24H147.698C147.871 428.84 148.144 428.507 148.518 428.24C148.891 427.973 149.351 427.84 149.898 427.84C150.631 427.84 151.184 428.08 151.558 428.56C151.944 429.04 152.138 429.713 152.138 430.58V438H150.098V431C150.098 430.6 150.011 430.287 149.838 430.06C149.678 429.82 149.418 429.7 149.058 429.7C148.698 429.7 148.398 429.84 148.158 430.12C147.931 430.4 147.818 430.793 147.818 431.3V438H145.758V431C145.758 430.6 145.678 430.287 145.518 430.06C145.358 429.82 145.098 429.7 144.738 429.7C144.378 429.7 144.078 429.84 143.838 430.12C143.598 430.4 143.478 430.793 143.478 431.3V438H141.438ZM166.482 438V428.08H168.322L168.502 429.56H168.602C168.869 429.08 169.282 428.673 169.842 428.34C170.402 428.007 171.049 427.84 171.782 427.84C172.995 427.84 173.909 428.207 174.522 428.94C175.135 429.673 175.442 430.753 175.442 432.18V438H173.322V432.44C173.322 431.613 173.149 430.973 172.802 430.52C172.455 430.067 171.909 429.84 171.162 429.84C170.429 429.84 169.815 430.087 169.322 430.58C168.842 431.073 168.602 431.787 168.602 432.72V438H166.482ZM182.014 438.24C181.227 438.24 180.567 438.107 180.034 437.84C179.501 437.56 179.101 437.193 178.834 436.74C178.567 436.273 178.434 435.767 178.434 435.22C178.434 434.247 178.787 433.487 179.494 432.94C180.214 432.393 181.227 432.12 182.534 432.12H185.094V431.9C185.094 430.407 184.401 429.66 183.014 429.66C182.441 429.66 181.954 429.787 181.554 430.04C181.167 430.28 180.907 430.673 180.774 431.22H178.654C178.761 430.18 179.207 429.36 179.994 428.76C180.794 428.147 181.801 427.84 183.014 427.84C184.481 427.84 185.547 428.2 186.214 428.92C186.881 429.64 187.214 430.633 187.214 431.9V438H185.414L185.234 436.54H185.094C184.801 437.007 184.434 437.407 183.994 437.74C183.554 438.073 182.894 438.24 182.014 438.24ZM182.414 436.46C183.281 436.46 183.927 436.2 184.354 435.68C184.794 435.147 185.034 434.473 185.074 433.66H182.754C181.994 433.66 181.454 433.787 181.134 434.04C180.827 434.28 180.674 434.62 180.674 435.06C180.674 435.5 180.827 435.847 181.134 436.1C181.454 436.34 181.881 436.46 182.414 436.46ZM189.406 438V428.08H191.166L191.346 429.24H191.446C191.62 428.827 191.886 428.493 192.246 428.24C192.606 427.973 193.033 427.84 193.526 427.84C194.006 427.84 194.426 427.96 194.786 428.2C195.146 428.44 195.413 428.787 195.586 429.24H195.666C195.84 428.84 196.113 428.507 196.486 428.24C196.86 427.973 197.32 427.84 197.866 427.84C198.6 427.84 199.153 428.08 199.526 428.56C199.913 429.04 200.106 429.713 200.106 430.58V438H198.066V431C198.066 430.6 197.98 430.287 197.806 430.06C197.646 429.82 197.386 429.7 197.026 429.7C196.666 429.7 196.366 429.84 196.126 430.12C195.9 430.4 195.786 430.793 195.786 431.3V438H193.726V431C193.726 430.6 193.646 430.287 193.486 430.06C193.326 429.82 193.066 429.7 192.706 429.7C192.346 429.7 192.046 429.84 191.806 430.12C191.566 430.4 191.446 430.793 191.446 431.3V438H189.406ZM214.271 442.4V428.08H216.111L216.271 429.6H216.391C216.657 429.107 217.057 428.693 217.591 428.36C218.137 428.013 218.784 427.84 219.531 427.84C220.304 427.84 221.011 428.04 221.651 428.44C222.291 428.827 222.797 429.407 223.171 430.18C223.557 430.94 223.751 431.893 223.751 433.04C223.751 434.173 223.551 435.127 223.151 435.9C222.764 436.673 222.237 437.26 221.571 437.66C220.904 438.047 220.157 438.24 219.331 438.24C218.597 438.24 217.984 438.093 217.491 437.8C216.997 437.507 216.631 437.173 216.391 436.8V442.4H214.271ZM218.971 436.22C219.717 436.22 220.337 435.953 220.831 435.42C221.337 434.887 221.591 434.087 221.591 433.02C221.591 431.953 221.337 431.16 220.831 430.64C220.337 430.12 219.717 429.86 218.971 429.86C218.211 429.86 217.577 430.127 217.071 430.66C216.577 431.18 216.331 431.973 216.331 433.04C216.331 434.093 216.577 434.887 217.071 435.42C217.577 435.953 218.211 436.22 218.971 436.22ZM231.003 438.24C230.043 438.24 229.196 438.027 228.463 437.6C227.729 437.16 227.156 436.553 226.743 435.78C226.329 435.007 226.123 434.107 226.123 433.08C226.123 432.04 226.323 431.127 226.723 430.34C227.136 429.553 227.709 428.94 228.443 428.5C229.189 428.06 230.049 427.84 231.023 427.84C231.983 427.84 232.809 428.06 233.503 428.5C234.196 428.927 234.729 429.5 235.103 430.22C235.489 430.94 235.683 431.733 235.683 432.6C235.683 432.733 235.683 432.88 235.683 433.04C235.683 433.187 235.676 433.353 235.663 433.54H228.203C228.269 434.46 228.569 435.16 229.103 435.64C229.636 436.107 230.263 436.34 230.983 436.34C231.609 436.34 232.103 436.213 232.463 435.96C232.836 435.693 233.109 435.333 233.283 434.88H235.423C235.183 435.827 234.683 436.627 233.923 437.28C233.163 437.92 232.189 438.24 231.003 438.24ZM231.003 429.68C230.349 429.68 229.769 429.88 229.263 430.28C228.756 430.667 228.429 431.213 228.283 431.92H233.563C233.509 431.253 233.249 430.713 232.783 430.3C232.316 429.887 231.723 429.68 231.003 429.68ZM238.235 438V436.16H241.555V426.1C241.555 425.66 241.342 425.44 240.915 425.44H238.515V423.6H241.295C242.068 423.6 242.655 423.807 243.055 424.22C243.468 424.62 243.675 425.207 243.675 425.98V436.16H247.015V438H238.235ZM250.227 438V436.16H253.547V426.1C253.547 425.66 253.334 425.44 252.907 425.44H250.507V423.6H253.287C254.061 423.6 254.647 423.807 255.047 424.22C255.461 424.62 255.667 425.207 255.667 425.98V436.16H259.007V438H250.227ZM266.979 438.24C266.019 438.24 265.173 438.027 264.439 437.6C263.706 437.16 263.133 436.553 262.719 435.78C262.306 435.007 262.099 434.107 262.099 433.08C262.099 432.04 262.299 431.127 262.699 430.34C263.113 429.553 263.686 428.94 264.419 428.5C265.166 428.06 266.026 427.84 266.999 427.84C267.959 427.84 268.786 428.06 269.479 428.5C270.173 428.927 270.706 429.5 271.079 430.22C271.466 430.94 271.659 431.733 271.659 432.6C271.659 432.733 271.659 432.88 271.659 433.04C271.659 433.187 271.653 433.353 271.639 433.54H264.179C264.246 434.46 264.546 435.16 265.079 435.64C265.613 436.107 266.239 436.34 266.959 436.34C267.586 436.34 268.079 436.213 268.439 435.96C268.813 435.693 269.086 435.333 269.259 434.88H271.399C271.159 435.827 270.659 436.627 269.899 437.28C269.139 437.92 268.166 438.24 266.979 438.24ZM266.979 429.68C266.326 429.68 265.746 429.88 265.239 430.28C264.733 430.667 264.406 431.213 264.259 431.92H269.539C269.486 431.253 269.226 430.713 268.759 430.3C268.293 429.887 267.699 429.68 266.979 429.68ZM274.412 438V428.08H276.252L276.432 429.56H276.532C276.798 429.08 277.212 428.673 277.772 428.34C278.332 428.007 278.978 427.84 279.712 427.84C280.925 427.84 281.838 428.207 282.452 428.94C283.065 429.673 283.372 430.753 283.372 432.18V438H281.252V432.44C281.252 431.613 281.078 430.973 280.732 430.52C280.385 430.067 279.838 429.84 279.092 429.84C278.358 429.84 277.745 430.087 277.252 430.58C276.772 431.073 276.532 431.787 276.532 432.72V438H274.412ZM291.924 438C290.95 438 290.177 437.767 289.604 437.3C289.03 436.82 288.744 435.973 288.744 434.76V429.88H286.244V428.08H287.724C288.404 428.08 288.804 427.747 288.924 427.08L289.224 425.48H290.864V428.08H294.784V429.88H290.864V434.72C290.864 435.24 290.977 435.607 291.204 435.82C291.444 436.02 291.85 436.12 292.424 436.12H294.744V438H291.924ZM302.956 438.24C301.996 438.24 301.149 438.027 300.416 437.6C299.683 437.16 299.109 436.553 298.696 435.78C298.283 435.007 298.076 434.107 298.076 433.08C298.076 432.04 298.276 431.127 298.676 430.34C299.089 429.553 299.663 428.94 300.396 428.5C301.143 428.06 302.003 427.84 302.976 427.84C303.936 427.84 304.763 428.06 305.456 428.5C306.149 428.927 306.683 429.5 307.056 430.22C307.443 430.94 307.636 431.733 307.636 432.6C307.636 432.733 307.636 432.88 307.636 433.04C307.636 433.187 307.629 433.353 307.616 433.54H300.156C300.223 434.46 300.523 435.16 301.056 435.64C301.589 436.107 302.216 436.34 302.936 436.34C303.563 436.34 304.056 436.213 304.416 435.96C304.789 435.693 305.063 435.333 305.236 434.88H307.376C307.136 435.827 306.636 436.627 305.876 437.28C305.116 437.92 304.143 438.24 302.956 438.24ZM302.956 429.68C302.303 429.68 301.723 429.88 301.216 430.28C300.709 430.667 300.383 431.213 300.236 431.92H305.516C305.463 431.253 305.203 430.713 304.736 430.3C304.269 429.887 303.676 429.68 302.956 429.68ZM314.908 438.24C313.601 438.24 312.561 437.933 311.788 437.32C311.015 436.707 310.575 435.893 310.468 434.88H312.648C312.728 435.347 312.961 435.727 313.348 436.02C313.748 436.313 314.275 436.46 314.928 436.46C315.555 436.46 316.035 436.333 316.368 436.08C316.715 435.813 316.888 435.507 316.888 435.16C316.888 434.653 316.681 434.307 316.268 434.12C315.868 433.933 315.275 433.793 314.488 433.7C313.808 433.62 313.188 433.467 312.628 433.24C312.081 433 311.648 432.68 311.328 432.28C311.008 431.867 310.848 431.353 310.848 430.74C310.848 429.873 311.188 429.173 311.868 428.64C312.548 428.107 313.495 427.84 314.708 427.84C315.921 427.84 316.861 428.113 317.528 428.66C318.195 429.207 318.581 429.953 318.688 430.9H316.648C316.595 430.5 316.388 430.187 316.028 429.96C315.668 429.72 315.221 429.6 314.688 429.6C314.141 429.6 313.708 429.707 313.388 429.92C313.068 430.12 312.908 430.387 312.908 430.72C312.908 431.44 313.681 431.88 315.228 432.04C315.961 432.12 316.615 432.26 317.188 432.46C317.761 432.647 318.215 432.947 318.548 433.36C318.881 433.76 319.048 434.327 319.048 435.06C319.061 435.66 318.888 436.2 318.528 436.68C318.181 437.16 317.695 437.54 317.068 437.82C316.455 438.1 315.735 438.24 314.908 438.24ZM329.46 442.4V436.72C329.207 437.133 328.847 437.493 328.38 437.8C327.914 438.093 327.294 438.24 326.52 438.24C325.707 438.24 324.96 438.047 324.28 437.66C323.614 437.26 323.08 436.673 322.68 435.9C322.294 435.127 322.1 434.173 322.1 433.04C322.1 431.893 322.294 430.94 322.68 430.18C323.08 429.407 323.607 428.827 324.26 428.44C324.914 428.04 325.62 427.84 326.38 427.84C327.167 427.84 327.807 427.993 328.3 428.3C328.794 428.593 329.18 428.993 329.46 429.5H329.58L329.76 428.08H331.58V442.4H329.46ZM326.9 436.22C327.66 436.22 328.287 435.953 328.78 435.42C329.287 434.887 329.54 434.093 329.54 433.04C329.54 431.973 329.287 431.18 328.78 430.66C328.287 430.127 327.66 429.86 326.9 429.86C326.14 429.86 325.507 430.12 325 430.64C324.507 431.16 324.26 431.953 324.26 433.02C324.26 434.087 324.507 434.887 325 435.42C325.507 435.953 326.14 436.22 326.9 436.22ZM337.933 438.24C336.733 438.24 335.819 437.873 335.193 437.14C334.579 436.393 334.273 435.313 334.273 433.9V428.08H336.393V433.64C336.393 434.453 336.566 435.093 336.913 435.56C337.273 436.013 337.819 436.24 338.553 436.24C339.286 436.24 339.899 435.993 340.393 435.5C340.886 435.007 341.133 434.293 341.133 433.36V428.08H343.253V438H341.413L341.233 436.52H341.133C340.866 437 340.453 437.407 339.893 437.74C339.333 438.073 338.679 438.24 337.933 438.24ZM350.925 438.24C349.965 438.24 349.118 438.027 348.385 437.6C347.651 437.16 347.078 436.553 346.665 435.78C346.251 435.007 346.045 434.107 346.045 433.08C346.045 432.04 346.245 431.127 346.645 430.34C347.058 429.553 347.631 428.94 348.365 428.5C349.111 428.06 349.971 427.84 350.945 427.84C351.905 427.84 352.731 428.06 353.425 428.5C354.118 428.927 354.651 429.5 355.025 430.22C355.411 430.94 355.605 431.733 355.605 432.6C355.605 432.733 355.605 432.88 355.605 433.04C355.605 433.187 355.598 433.353 355.585 433.54H348.125C348.191 434.46 348.491 435.16 349.025 435.64C349.558 436.107 350.185 436.34 350.905 436.34C351.531 436.34 352.025 436.213 352.385 435.96C352.758 435.693 353.031 435.333 353.205 434.88H355.345C355.105 435.827 354.605 436.627 353.845 437.28C353.085 437.92 352.111 438.24 350.925 438.24ZM350.925 429.68C350.271 429.68 349.691 429.88 349.185 430.28C348.678 430.667 348.351 431.213 348.205 431.92H353.485C353.431 431.253 353.171 430.713 352.705 430.3C352.238 429.887 351.645 429.68 350.925 429.68ZM375.869 438C374.896 438 374.122 437.767 373.549 437.3C372.976 436.82 372.689 435.973 372.689 434.76V429.88H370.189V428.08H371.669C372.349 428.08 372.749 427.747 372.869 427.08L373.169 425.48H374.809V428.08H378.729V429.88H374.809V434.72C374.809 435.24 374.922 435.607 375.149 435.82C375.389 436.02 375.796 436.12 376.369 436.12H378.689V438H375.869ZM382.321 438V436.16H384.741V430.58C384.741 430.14 384.528 429.92 384.101 429.92H382.521V428.08H384.901C385.448 428.08 385.895 428.24 386.241 428.56C386.588 428.867 386.761 429.3 386.761 429.86V430.1H386.861C387.008 429.353 387.321 428.793 387.801 428.42C388.295 428.033 389.008 427.84 389.941 427.84H391.481V430.08H389.321C388.535 430.08 387.928 430.353 387.501 430.9C387.075 431.447 386.861 432.1 386.861 432.86V436.16H389.941V438H382.321ZM398.573 426.56C398.107 426.56 397.713 426.413 397.393 426.12C397.087 425.813 396.933 425.44 396.933 425C396.933 424.56 397.087 424.193 397.393 423.9C397.713 423.607 398.107 423.46 398.573 423.46C399.053 423.46 399.447 423.607 399.753 423.9C400.073 424.193 400.233 424.56 400.233 425C400.233 425.44 400.073 425.813 399.753 426.12C399.447 426.413 399.053 426.56 398.573 426.56ZM394.593 438V436.16H397.713V430.58C397.713 430.14 397.5 429.92 397.073 429.92H394.873V428.08H397.453C398.28 428.08 398.88 428.273 399.253 428.66C399.64 429.033 399.833 429.633 399.833 430.46V436.16H402.953V438H394.593ZM410.846 438.24C409.539 438.24 408.499 437.933 407.726 437.32C406.952 436.707 406.512 435.893 406.406 434.88H408.586C408.666 435.347 408.899 435.727 409.286 436.02C409.686 436.313 410.212 436.46 410.866 436.46C411.492 436.46 411.972 436.333 412.306 436.08C412.652 435.813 412.826 435.507 412.826 435.16C412.826 434.653 412.619 434.307 412.206 434.12C411.806 433.933 411.212 433.793 410.426 433.7C409.746 433.62 409.126 433.467 408.566 433.24C408.019 433 407.586 432.68 407.266 432.28C406.946 431.867 406.786 431.353 406.786 430.74C406.786 429.873 407.126 429.173 407.806 428.64C408.486 428.107 409.432 427.84 410.646 427.84C411.859 427.84 412.799 428.113 413.466 428.66C414.132 429.207 414.519 429.953 414.626 430.9H412.586C412.532 430.5 412.326 430.187 411.966 429.96C411.606 429.72 411.159 429.6 410.626 429.6C410.079 429.6 409.646 429.707 409.326 429.92C409.006 430.12 408.846 430.387 408.846 430.72C408.846 431.44 409.619 431.88 411.166 432.04C411.899 432.12 412.552 432.26 413.126 432.46C413.699 432.647 414.152 432.947 414.486 433.36C414.819 433.76 414.986 434.327 414.986 435.06C414.999 435.66 414.826 436.2 414.466 436.68C414.119 437.16 413.632 437.54 413.006 437.82C412.392 438.1 411.672 438.24 410.846 438.24ZM423.838 438C422.864 438 422.091 437.767 421.518 437.3C420.944 436.82 420.658 435.973 420.658 434.76V429.88H418.158V428.08H419.638C420.318 428.08 420.718 427.747 420.838 427.08L421.138 425.48H422.778V428.08H426.698V429.88H422.778V434.72C422.778 435.24 422.891 435.607 423.118 435.82C423.358 436.02 423.764 436.12 424.338 436.12H426.658V438H423.838ZM434.55 426.56C434.083 426.56 433.69 426.413 433.37 426.12C433.063 425.813 432.91 425.44 432.91 425C432.91 424.56 433.063 424.193 433.37 423.9C433.69 423.607 434.083 423.46 434.55 423.46C435.03 423.46 435.423 423.607 435.73 423.9C436.05 424.193 436.21 424.56 436.21 425C436.21 425.44 436.05 425.813 435.73 426.12C435.423 426.413 435.03 426.56 434.55 426.56ZM430.57 438V436.16H433.69V430.58C433.69 430.14 433.477 429.92 433.05 429.92H430.85V428.08H433.43C434.257 428.08 434.857 428.273 435.23 428.66C435.617 429.033 435.81 429.633 435.81 430.46V436.16H438.93V438H430.57ZM449.382 442.4V436.72C449.129 437.133 448.769 437.493 448.302 437.8C447.836 438.093 447.216 438.24 446.442 438.24C445.629 438.24 444.882 438.047 444.202 437.66C443.536 437.26 443.002 436.673 442.602 435.9C442.216 435.127 442.022 434.173 442.022 433.04C442.022 431.893 442.216 430.94 442.602 430.18C443.002 429.407 443.529 428.827 444.182 428.44C444.836 428.04 445.542 427.84 446.302 427.84C447.089 427.84 447.729 427.993 448.222 428.3C448.716 428.593 449.102 428.993 449.382 429.5H449.502L449.682 428.08H451.502V442.4H449.382ZM446.822 436.22C447.582 436.22 448.209 435.953 448.702 435.42C449.209 434.887 449.462 434.093 449.462 433.04C449.462 431.973 449.209 431.18 448.702 430.66C448.209 430.127 447.582 429.86 446.822 429.86C446.062 429.86 445.429 430.12 444.922 430.64C444.429 431.16 444.182 431.953 444.182 433.02C444.182 434.087 444.429 434.887 444.922 435.42C445.429 435.953 446.062 436.22 446.822 436.22ZM457.854 438.24C456.654 438.24 455.741 437.873 455.114 437.14C454.501 436.393 454.194 435.313 454.194 433.9V428.08H456.314V433.64C456.314 434.453 456.488 435.093 456.834 435.56C457.194 436.013 457.741 436.24 458.474 436.24C459.208 436.24 459.821 435.993 460.314 435.5C460.808 435.007 461.054 434.293 461.054 433.36V428.08H463.174V438H461.334L461.154 436.52H461.054C460.788 437 460.374 437.407 459.814 437.74C459.254 438.073 458.601 438.24 457.854 438.24ZM470.847 438.24C469.887 438.24 469.04 438.027 468.307 437.6C467.573 437.16 467 436.553 466.587 435.78C466.173 435.007 465.967 434.107 465.967 433.08C465.967 432.04 466.167 431.127 466.567 430.34C466.98 429.553 467.553 428.94 468.287 428.5C469.033 428.06 469.893 427.84 470.867 427.84C471.827 427.84 472.653 428.06 473.347 428.5C474.04 428.927 474.573 429.5 474.947 430.22C475.333 430.94 475.527 431.733 475.527 432.6C475.527 432.733 475.527 432.88 475.527 433.04C475.527 433.187 475.52 433.353 475.507 433.54H468.047C468.113 434.46 468.413 435.16 468.947 435.64C469.48 436.107 470.107 436.34 470.827 436.34C471.453 436.34 471.947 436.213 472.307 435.96C472.68 435.693 472.953 435.333 473.127 434.88H475.267C475.027 435.827 474.527 436.627 473.767 437.28C473.007 437.92 472.033 438.24 470.847 438.24ZM470.847 429.68C470.193 429.68 469.613 429.88 469.107 430.28C468.6 430.667 468.273 431.213 468.127 431.92H473.407C473.353 431.253 473.093 430.713 472.627 430.3C472.16 429.887 471.567 429.68 470.847 429.68ZM45.5 464V454.08H47.26L47.44 455.24H47.54C47.7133 454.827 47.98 454.493 48.34 454.24C48.7 453.973 49.1267 453.84 49.62 453.84C50.1 453.84 50.52 453.96 50.88 454.2C51.24 454.44 51.5067 454.787 51.68 455.24H51.76C51.9333 454.84 52.2067 454.507 52.58 454.24C52.9533 453.973 53.4133 453.84 53.96 453.84C54.6933 453.84 55.2467 454.08 55.62 454.56C56.0067 455.04 56.2 455.713 56.2 456.58V464H54.16V457C54.16 456.6 54.0733 456.287 53.9 456.06C53.74 455.82 53.48 455.7 53.12 455.7C52.76 455.7 52.46 455.84 52.22 456.12C51.9933 456.4 51.88 456.793 51.88 457.3V464H49.82V457C49.82 456.6 49.74 456.287 49.58 456.06C49.42 455.82 49.16 455.7 48.8 455.7C48.44 455.7 48.14 455.84 47.9 456.12C47.66 456.4 47.54 456.793 47.54 457.3V464H45.5ZM62.0922 464.24C61.3055 464.24 60.6455 464.107 60.1122 463.84C59.5789 463.56 59.1789 463.193 58.9122 462.74C58.6455 462.273 58.5122 461.767 58.5122 461.22C58.5122 460.247 58.8655 459.487 59.5722 458.94C60.2922 458.393 61.3055 458.12 62.6122 458.12H65.1722V457.9C65.1722 456.407 64.4789 455.66 63.0922 455.66C62.5189 455.66 62.0322 455.787 61.6322 456.04C61.2455 456.28 60.9855 456.673 60.8522 457.22H58.7322C58.8389 456.18 59.2855 455.36 60.0722 454.76C60.8722 454.147 61.8789 453.84 63.0922 453.84C64.5589 453.84 65.6255 454.2 66.2922 454.92C66.9589 455.64 67.2922 456.633 67.2922 457.9V464H65.4922L65.3122 462.54H65.1722C64.8789 463.007 64.5122 463.407 64.0722 463.74C63.6322 464.073 62.9722 464.24 62.0922 464.24ZM62.4922 462.46C63.3589 462.46 64.0055 462.2 64.4322 461.68C64.8722 461.147 65.1122 460.473 65.1522 459.66H62.8322C62.0722 459.66 61.5322 459.787 61.2122 460.04C60.9055 460.28 60.7522 460.62 60.7522 461.06C60.7522 461.5 60.9055 461.847 61.2122 462.1C61.5322 462.34 61.9589 462.46 62.4922 462.46ZM75.1044 464.24C74.1444 464.24 73.2977 464.027 72.5644 463.6C71.831 463.16 71.2577 462.553 70.8444 461.78C70.431 461.007 70.2244 460.107 70.2244 459.08C70.2244 458.04 70.4244 457.127 70.8244 456.34C71.2377 455.553 71.811 454.94 72.5444 454.5C73.291 454.06 74.151 453.84 75.1244 453.84C76.0844 453.84 76.911 454.06 77.6044 454.5C78.2977 454.927 78.831 455.5 79.2044 456.22C79.591 456.94 79.7844 457.733 79.7844 458.6C79.7844 458.733 79.7844 458.88 79.7844 459.04C79.7844 459.187 79.7777 459.353 79.7644 459.54H72.3044C72.371 460.46 72.671 461.16 73.2044 461.64C73.7377 462.107 74.3644 462.34 75.0844 462.34C75.711 462.34 76.2044 462.213 76.5644 461.96C76.9377 461.693 77.211 461.333 77.3844 460.88H79.5244C79.2844 461.827 78.7844 462.627 78.0244 463.28C77.2644 463.92 76.291 464.24 75.1044 464.24ZM75.1044 455.68C74.451 455.68 73.871 455.88 73.3644 456.28C72.8577 456.667 72.531 457.213 72.3844 457.92H77.6644C77.611 457.253 77.351 456.713 76.8844 456.3C76.4177 455.887 75.8244 455.68 75.1044 455.68ZM87.1166 464.24C86.1966 464.24 85.3699 464.027 84.6366 463.6C83.9166 463.173 83.3499 462.573 82.9366 461.8C82.5232 461.013 82.3166 460.093 82.3166 459.04C82.3166 457.987 82.5232 457.073 82.9366 456.3C83.3632 455.527 83.9366 454.927 84.6566 454.5C85.3766 454.06 86.1966 453.84 87.1166 453.84C88.3832 453.84 89.4032 454.16 90.1766 454.8C90.9632 455.427 91.4632 456.293 91.6766 457.4H89.4566C89.3232 456.92 89.0499 456.54 88.6366 456.26C88.2366 455.98 87.7232 455.84 87.0966 455.84C86.6432 455.84 86.2099 455.96 85.7966 456.2C85.3966 456.44 85.0699 456.8 84.8166 457.28C84.5766 457.747 84.4566 458.333 84.4566 459.04C84.4566 459.733 84.5766 460.32 84.8166 460.8C85.0699 461.28 85.3966 461.647 85.7966 461.9C86.2099 462.14 86.6432 462.26 87.0966 462.26C87.7366 462.26 88.2499 462.12 88.6366 461.84C89.0232 461.56 89.2966 461.173 89.4566 460.68H91.6766C91.4099 461.773 90.8899 462.64 90.1166 463.28C89.3432 463.92 88.3432 464.24 87.1166 464.24ZM99.0888 464.24C98.1288 464.24 97.2821 464.027 96.5488 463.6C95.8154 463.16 95.2421 462.553 94.8288 461.78C94.4154 461.007 94.2088 460.107 94.2088 459.08C94.2088 458.04 94.4088 457.127 94.8088 456.34C95.2221 455.553 95.7954 454.94 96.5288 454.5C97.2754 454.06 98.1354 453.84 99.1088 453.84C100.069 453.84 100.895 454.06 101.589 454.5C102.282 454.927 102.815 455.5 103.189 456.22C103.575 456.94 103.769 457.733 103.769 458.6C103.769 458.733 103.769 458.88 103.769 459.04C103.769 459.187 103.762 459.353 103.749 459.54H96.2888C96.3554 460.46 96.6554 461.16 97.1888 461.64C97.7221 462.107 98.3488 462.34 99.0688 462.34C99.6954 462.34 100.189 462.213 100.549 461.96C100.922 461.693 101.195 461.333 101.369 460.88H103.509C103.269 461.827 102.769 462.627 102.009 463.28C101.249 463.92 100.275 464.24 99.0888 464.24ZM99.0888 455.68C98.4354 455.68 97.8554 455.88 97.3488 456.28C96.8421 456.667 96.5154 457.213 96.3688 457.92H101.649C101.595 457.253 101.335 456.713 100.869 456.3C100.402 455.887 99.8088 455.68 99.0888 455.68ZM106.521 464V454.08H108.361L108.541 455.56H108.641C108.908 455.08 109.321 454.673 109.881 454.34C110.441 454.007 111.088 453.84 111.821 453.84C113.034 453.84 113.948 454.207 114.561 454.94C115.174 455.673 115.481 456.753 115.481 458.18V464H113.361V458.44C113.361 457.613 113.188 456.973 112.841 456.52C112.494 456.067 111.948 455.84 111.201 455.84C110.468 455.84 109.854 456.087 109.361 456.58C108.881 457.073 108.641 457.787 108.641 458.72V464H106.521ZM122.053 464.24C121.266 464.24 120.606 464.107 120.073 463.84C119.54 463.56 119.14 463.193 118.873 462.74C118.606 462.273 118.473 461.767 118.473 461.22C118.473 460.247 118.826 459.487 119.533 458.94C120.253 458.393 121.266 458.12 122.573 458.12H125.133V457.9C125.133 456.407 124.44 455.66 123.053 455.66C122.48 455.66 121.993 455.787 121.593 456.04C121.206 456.28 120.946 456.673 120.813 457.22H118.693C118.8 456.18 119.246 455.36 120.033 454.76C120.833 454.147 121.84 453.84 123.053 453.84C124.52 453.84 125.586 454.2 126.253 454.92C126.92 455.64 127.253 456.633 127.253 457.9V464H125.453L125.273 462.54H125.133C124.84 463.007 124.473 463.407 124.033 463.74C123.593 464.073 122.933 464.24 122.053 464.24ZM122.453 462.46C123.32 462.46 123.966 462.2 124.393 461.68C124.833 461.147 125.073 460.473 125.113 459.66H122.793C122.033 459.66 121.493 459.787 121.173 460.04C120.866 460.28 120.713 460.62 120.713 461.06C120.713 461.5 120.866 461.847 121.173 462.1C121.493 462.34 121.92 462.46 122.453 462.46ZM135.025 464.24C133.719 464.24 132.679 463.933 131.905 463.32C131.132 462.707 130.692 461.893 130.585 460.88H132.765C132.845 461.347 133.079 461.727 133.465 462.02C133.865 462.313 134.392 462.46 135.045 462.46C135.672 462.46 136.152 462.333 136.485 462.08C136.832 461.813 137.005 461.507 137.005 461.16C137.005 460.653 136.799 460.307 136.385 460.12C135.985 459.933 135.392 459.793 134.605 459.7C133.925 459.62 133.305 459.467 132.745 459.24C132.199 459 131.765 458.68 131.445 458.28C131.125 457.867 130.965 457.353 130.965 456.74C130.965 455.873 131.305 455.173 131.985 454.64C132.665 454.107 133.612 453.84 134.825 453.84C136.039 453.84 136.979 454.113 137.645 454.66C138.312 455.207 138.699 455.953 138.805 456.9H136.765C136.712 456.5 136.505 456.187 136.145 455.96C135.785 455.72 135.339 455.6 134.805 455.6C134.259 455.6 133.825 455.707 133.505 455.92C133.185 456.12 133.025 456.387 133.025 456.72C133.025 457.44 133.799 457.88 135.345 458.04C136.079 458.12 136.732 458.26 137.305 458.46C137.879 458.647 138.332 458.947 138.665 459.36C138.999 459.76 139.165 460.327 139.165 461.06C139.179 461.66 139.005 462.2 138.645 462.68C138.299 463.16 137.812 463.54 137.185 463.82C136.572 464.1 135.852 464.24 135.025 464.24ZM146.938 464.12C146.444 464.12 146.024 463.96 145.678 463.64C145.331 463.307 145.158 462.907 145.158 462.44C145.158 461.973 145.331 461.58 145.678 461.26C146.024 460.94 146.444 460.78 146.938 460.78C147.444 460.78 147.864 460.94 148.198 461.26C148.544 461.58 148.718 461.973 148.718 462.44C148.718 462.907 148.544 463.307 148.198 463.64C147.864 463.96 147.444 464.12 146.938 464.12ZM169.662 464L165.342 450H167.622L170.922 461.2L174.222 450H176.502L172.182 464H169.662ZM183.034 464.24C182.074 464.24 181.227 464.027 180.494 463.6C179.761 463.16 179.187 462.553 178.774 461.78C178.361 461.007 178.154 460.107 178.154 459.08C178.154 458.04 178.354 457.127 178.754 456.34C179.167 455.553 179.741 454.94 180.474 454.5C181.221 454.06 182.081 453.84 183.054 453.84C184.014 453.84 184.841 454.06 185.534 454.5C186.227 454.927 186.761 455.5 187.134 456.22C187.521 456.94 187.714 457.733 187.714 458.6C187.714 458.733 187.714 458.88 187.714 459.04C187.714 459.187 187.707 459.353 187.694 459.54H180.234C180.301 460.46 180.601 461.16 181.134 461.64C181.667 462.107 182.294 462.34 183.014 462.34C183.641 462.34 184.134 462.213 184.494 461.96C184.867 461.693 185.141 461.333 185.314 460.88H187.454C187.214 461.827 186.714 462.627 185.954 463.28C185.194 463.92 184.221 464.24 183.034 464.24ZM183.034 455.68C182.381 455.68 181.801 455.88 181.294 456.28C180.787 456.667 180.461 457.213 180.314 457.92H185.594C185.541 457.253 185.281 456.713 184.814 456.3C184.347 455.887 183.754 455.68 183.034 455.68ZM190.466 464V454.08H192.306L192.486 455.56H192.586C192.853 455.08 193.266 454.673 193.826 454.34C194.386 454.007 195.033 453.84 195.766 453.84C196.98 453.84 197.893 454.207 198.506 454.94C199.12 455.673 199.426 456.753 199.426 458.18V464H197.306V458.44C197.306 457.613 197.133 456.973 196.786 456.52C196.44 456.067 195.893 455.84 195.146 455.84C194.413 455.84 193.8 456.087 193.306 456.58C192.826 457.073 192.586 457.787 192.586 458.72V464H190.466ZM207.018 464.24C206.058 464.24 205.212 464.027 204.478 463.6C203.745 463.16 203.172 462.553 202.758 461.78C202.345 461.007 202.138 460.107 202.138 459.08C202.138 458.04 202.338 457.127 202.738 456.34C203.152 455.553 203.725 454.94 204.458 454.5C205.205 454.06 206.065 453.84 207.038 453.84C207.998 453.84 208.825 454.06 209.518 454.5C210.212 454.927 210.745 455.5 211.118 456.22C211.505 456.94 211.698 457.733 211.698 458.6C211.698 458.733 211.698 458.88 211.698 459.04C211.698 459.187 211.692 459.353 211.678 459.54H204.218C204.285 460.46 204.585 461.16 205.118 461.64C205.652 462.107 206.278 462.34 206.998 462.34C207.625 462.34 208.118 462.213 208.478 461.96C208.852 461.693 209.125 461.333 209.298 460.88H211.438C211.198 461.827 210.698 462.627 209.938 463.28C209.178 463.92 208.205 464.24 207.018 464.24ZM207.018 455.68C206.365 455.68 205.785 455.88 205.278 456.28C204.772 456.667 204.445 457.213 204.298 457.92H209.578C209.525 457.253 209.265 456.713 208.798 456.3C208.332 455.887 207.738 455.68 207.018 455.68ZM214.451 464V454.08H216.291L216.471 455.56H216.571C216.837 455.08 217.251 454.673 217.811 454.34C218.371 454.007 219.017 453.84 219.751 453.84C220.964 453.84 221.877 454.207 222.491 454.94C223.104 455.673 223.411 456.753 223.411 458.18V464H221.291V458.44C221.291 457.613 221.117 456.973 220.771 456.52C220.424 456.067 219.877 455.84 219.131 455.84C218.397 455.84 217.784 456.087 217.291 456.58C216.811 457.073 216.571 457.787 216.571 458.72V464H214.451ZM229.983 464.24C229.196 464.24 228.536 464.107 228.003 463.84C227.469 463.56 227.069 463.193 226.803 462.74C226.536 462.273 226.403 461.767 226.403 461.22C226.403 460.247 226.756 459.487 227.463 458.94C228.183 458.393 229.196 458.12 230.503 458.12H233.063V457.9C233.063 456.407 232.369 455.66 230.983 455.66C230.409 455.66 229.923 455.787 229.523 456.04C229.136 456.28 228.876 456.673 228.743 457.22H226.623C226.729 456.18 227.176 455.36 227.963 454.76C228.763 454.147 229.769 453.84 230.983 453.84C232.449 453.84 233.516 454.2 234.183 454.92C234.849 455.64 235.183 456.633 235.183 457.9V464H233.383L233.203 462.54H233.063C232.769 463.007 232.403 463.407 231.963 463.74C231.523 464.073 230.863 464.24 229.983 464.24ZM230.383 462.46C231.249 462.46 231.896 462.2 232.323 461.68C232.763 461.147 233.003 460.473 233.043 459.66H230.723C229.963 459.66 229.423 459.787 229.103 460.04C228.796 460.28 228.643 460.62 228.643 461.06C228.643 461.5 228.796 461.847 229.103 462.1C229.423 462.34 229.849 462.46 230.383 462.46ZM243.955 464C242.982 464 242.208 463.767 241.635 463.3C241.062 462.82 240.775 461.973 240.775 460.76V455.88H238.275V454.08H239.755C240.435 454.08 240.835 453.747 240.955 453.08L241.255 451.48H242.895V454.08H246.815V455.88H242.895V460.72C242.895 461.24 243.008 461.607 243.235 461.82C243.475 462.02 243.882 462.12 244.455 462.12H246.775V464H243.955ZM254.667 452.56C254.201 452.56 253.807 452.413 253.487 452.12C253.181 451.813 253.027 451.44 253.027 451C253.027 450.56 253.181 450.193 253.487 449.9C253.807 449.607 254.201 449.46 254.667 449.46C255.147 449.46 255.541 449.607 255.847 449.9C256.167 450.193 256.327 450.56 256.327 451C256.327 451.44 256.167 451.813 255.847 452.12C255.541 452.413 255.147 452.56 254.667 452.56ZM250.687 464V462.16H253.807V456.58C253.807 456.14 253.594 455.92 253.167 455.92H250.967V454.08H253.547C254.374 454.08 254.974 454.273 255.347 454.66C255.734 455.033 255.927 455.633 255.927 456.46V462.16H259.047V464H250.687ZM266.939 464.24C265.633 464.24 264.593 463.933 263.819 463.32C263.046 462.707 262.606 461.893 262.499 460.88H264.679C264.759 461.347 264.993 461.727 265.379 462.02C265.779 462.313 266.306 462.46 266.959 462.46C267.586 462.46 268.066 462.333 268.399 462.08C268.746 461.813 268.919 461.507 268.919 461.16C268.919 460.653 268.713 460.307 268.299 460.12C267.899 459.933 267.306 459.793 266.519 459.7C265.839 459.62 265.219 459.467 264.659 459.24C264.113 459 263.679 458.68 263.359 458.28C263.039 457.867 262.879 457.353 262.879 456.74C262.879 455.873 263.219 455.173 263.899 454.64C264.579 454.107 265.526 453.84 266.739 453.84C267.953 453.84 268.893 454.113 269.559 454.66C270.226 455.207 270.613 455.953 270.719 456.9H268.679C268.626 456.5 268.419 456.187 268.059 455.96C267.699 455.72 267.253 455.6 266.719 455.6C266.173 455.6 265.739 455.707 265.419 455.92C265.099 456.12 264.939 456.387 264.939 456.72C264.939 457.44 265.713 457.88 267.259 458.04C267.993 458.12 268.646 458.26 269.219 458.46C269.793 458.647 270.246 458.947 270.579 459.36C270.913 459.76 271.079 460.327 271.079 461.06C271.093 461.66 270.919 462.2 270.559 462.68C270.213 463.16 269.726 463.54 269.099 463.82C268.486 464.1 267.766 464.24 266.939 464.24ZM286.404 464V454.08H288.244L288.424 455.56H288.524C288.79 455.08 289.204 454.673 289.764 454.34C290.324 454.007 290.97 453.84 291.704 453.84C292.917 453.84 293.83 454.207 294.444 454.94C295.057 455.673 295.364 456.753 295.364 458.18V464H293.244V458.44C293.244 457.613 293.07 456.973 292.724 456.52C292.377 456.067 291.83 455.84 291.084 455.84C290.35 455.84 289.737 456.087 289.244 456.58C288.764 457.073 288.524 457.787 288.524 458.72V464H286.404ZM301.956 464.24C300.756 464.24 299.843 463.873 299.216 463.14C298.603 462.393 298.296 461.313 298.296 459.9V454.08H300.416V459.64C300.416 460.453 300.589 461.093 300.936 461.56C301.296 462.013 301.843 462.24 302.576 462.24C303.309 462.24 303.923 461.993 304.416 461.5C304.909 461.007 305.156 460.293 305.156 459.36V454.08H307.276V464H305.436L305.256 462.52H305.156C304.889 463 304.476 463.407 303.916 463.74C303.356 464.073 302.703 464.24 301.956 464.24ZM310.388 464V454.08H312.228L312.408 455.56H312.508C312.775 455.08 313.188 454.673 313.748 454.34C314.308 454.007 314.955 453.84 315.688 453.84C316.901 453.84 317.815 454.207 318.428 454.94C319.041 455.673 319.348 456.753 319.348 458.18V464H317.228V458.44C317.228 457.613 317.055 456.973 316.708 456.52C316.361 456.067 315.815 455.84 315.068 455.84C314.335 455.84 313.721 456.087 313.228 456.58C312.748 457.073 312.508 457.787 312.508 458.72V464H310.388ZM326.96 464.24C326.04 464.24 325.214 464.027 324.48 463.6C323.76 463.173 323.194 462.573 322.78 461.8C322.367 461.013 322.16 460.093 322.16 459.04C322.16 457.987 322.367 457.073 322.78 456.3C323.207 455.527 323.78 454.927 324.5 454.5C325.22 454.06 326.04 453.84 326.96 453.84C328.227 453.84 329.247 454.16 330.02 454.8C330.807 455.427 331.307 456.293 331.52 457.4H329.3C329.167 456.92 328.894 456.54 328.48 456.26C328.08 455.98 327.567 455.84 326.94 455.84C326.487 455.84 326.054 455.96 325.64 456.2C325.24 456.44 324.914 456.8 324.66 457.28C324.42 457.747 324.3 458.333 324.3 459.04C324.3 459.733 324.42 460.32 324.66 460.8C324.914 461.28 325.24 461.647 325.64 461.9C326.054 462.14 326.487 462.26 326.94 462.26C327.58 462.26 328.094 462.12 328.48 461.84C328.867 461.56 329.14 461.173 329.3 460.68H331.52C331.254 461.773 330.734 462.64 329.96 463.28C329.187 463.92 328.187 464.24 326.96 464.24ZM349.905 464.24C349.118 464.24 348.458 464.107 347.925 463.84C347.391 463.56 346.991 463.193 346.725 462.74C346.458 462.273 346.325 461.767 346.325 461.22C346.325 460.247 346.678 459.487 347.385 458.94C348.105 458.393 349.118 458.12 350.425 458.12H352.985V457.9C352.985 456.407 352.291 455.66 350.905 455.66C350.331 455.66 349.845 455.787 349.445 456.04C349.058 456.28 348.798 456.673 348.665 457.22H346.545C346.651 456.18 347.098 455.36 347.885 454.76C348.685 454.147 349.691 453.84 350.905 453.84C352.371 453.84 353.438 454.2 354.105 454.92C354.771 455.64 355.105 456.633 355.105 457.9V464H353.305L353.125 462.54H352.985C352.691 463.007 352.325 463.407 351.885 463.74C351.445 464.073 350.785 464.24 349.905 464.24ZM350.305 462.46C351.171 462.46 351.818 462.2 352.245 461.68C352.685 461.147 352.925 460.473 352.965 459.66H350.645C349.885 459.66 349.345 459.787 349.025 460.04C348.718 460.28 348.565 460.62 348.565 461.06C348.565 461.5 348.718 461.847 349.025 462.1C349.345 462.34 349.771 462.46 350.305 462.46ZM362.937 464.24C362.017 464.24 361.19 464.027 360.457 463.6C359.737 463.173 359.17 462.573 358.757 461.8C358.344 461.013 358.137 460.093 358.137 459.04C358.137 457.987 358.344 457.073 358.757 456.3C359.184 455.527 359.757 454.927 360.477 454.5C361.197 454.06 362.017 453.84 362.937 453.84C364.204 453.84 365.224 454.16 365.997 454.8C366.784 455.427 367.284 456.293 367.497 457.4H365.277C365.144 456.92 364.87 456.54 364.457 456.26C364.057 455.98 363.544 455.84 362.917 455.84C362.464 455.84 362.03 455.96 361.617 456.2C361.217 456.44 360.89 456.8 360.637 457.28C360.397 457.747 360.277 458.333 360.277 459.04C360.277 459.733 360.397 460.32 360.637 460.8C360.89 461.28 361.217 461.647 361.617 461.9C362.03 462.14 362.464 462.26 362.917 462.26C363.557 462.26 364.07 462.12 364.457 461.84C364.844 461.56 365.117 461.173 365.277 460.68H367.497C367.23 461.773 366.71 462.64 365.937 463.28C365.164 463.92 364.164 464.24 362.937 464.24ZM51.08 490.24C49.7733 490.24 48.7333 489.933 47.96 489.32C47.1867 488.707 46.7467 487.893 46.64 486.88H48.82C48.9 487.347 49.1333 487.727 49.52 488.02C49.92 488.313 50.4467 488.46 51.1 488.46C51.7267 488.46 52.2067 488.333 52.54 488.08C52.8867 487.813 53.06 487.507 53.06 487.16C53.06 486.653 52.8533 486.307 52.44 486.12C52.04 485.933 51.4467 485.793 50.66 485.7C49.98 485.62 49.36 485.467 48.8 485.24C48.2533 485 47.82 484.68 47.5 484.28C47.18 483.867 47.02 483.353 47.02 482.74C47.02 481.873 47.36 481.173 48.04 480.64C48.72 480.107 49.6667 479.84 50.88 479.84C52.0933 479.84 53.0333 480.113 53.7 480.66C54.3667 481.207 54.7533 481.953 54.86 482.9H52.82C52.7667 482.5 52.56 482.187 52.2 481.96C51.84 481.72 51.3933 481.6 50.86 481.6C50.3133 481.6 49.88 481.707 49.56 481.92C49.24 482.12 49.08 482.387 49.08 482.72C49.08 483.44 49.8533 483.88 51.4 484.04C52.1333 484.12 52.7867 484.26 53.36 484.46C53.9333 484.647 54.3867 484.947 54.72 485.36C55.0533 485.76 55.22 486.327 55.22 487.06C55.2333 487.66 55.06 488.2 54.7 488.68C54.3533 489.16 53.8667 489.54 53.24 489.82C52.6267 490.1 51.9067 490.24 51.08 490.24ZM62.1122 490.24C60.9122 490.24 59.9989 489.873 59.3722 489.14C58.7589 488.393 58.4522 487.313 58.4522 485.9V480.08H60.5722V485.64C60.5722 486.453 60.7455 487.093 61.0922 487.56C61.4522 488.013 61.9989 488.24 62.7322 488.24C63.4655 488.24 64.0789 487.993 64.5722 487.5C65.0655 487.007 65.3122 486.293 65.3122 485.36V480.08H67.4322V490H65.5922L65.4122 488.52H65.3122C65.0455 489 64.6322 489.407 64.0722 489.74C63.5122 490.073 62.8589 490.24 62.1122 490.24ZM75.0644 490.24C73.7577 490.24 72.7177 489.933 71.9444 489.32C71.171 488.707 70.731 487.893 70.6244 486.88H72.8044C72.8844 487.347 73.1177 487.727 73.5044 488.02C73.9044 488.313 74.431 488.46 75.0844 488.46C75.711 488.46 76.191 488.333 76.5244 488.08C76.871 487.813 77.0444 487.507 77.0444 487.16C77.0444 486.653 76.8377 486.307 76.4244 486.12C76.0244 485.933 75.431 485.793 74.6444 485.7C73.9644 485.62 73.3444 485.467 72.7844 485.24C72.2377 485 71.8044 484.68 71.4844 484.28C71.1644 483.867 71.0044 483.353 71.0044 482.74C71.0044 481.873 71.3444 481.173 72.0244 480.64C72.7044 480.107 73.651 479.84 74.8644 479.84C76.0777 479.84 77.0177 480.113 77.6844 480.66C78.351 481.207 78.7377 481.953 78.8444 482.9H76.8044C76.751 482.5 76.5444 482.187 76.1844 481.96C75.8244 481.72 75.3777 481.6 74.8444 481.6C74.2977 481.6 73.8644 481.707 73.5444 481.92C73.2244 482.12 73.0644 482.387 73.0644 482.72C73.0644 483.44 73.8377 483.88 75.3844 484.04C76.1177 484.12 76.771 484.26 77.3444 484.46C77.9177 484.647 78.371 484.947 78.7044 485.36C79.0377 485.76 79.2044 486.327 79.2044 487.06C79.2177 487.66 79.0444 488.2 78.6844 488.68C78.3377 489.16 77.851 489.54 77.2244 489.82C76.611 490.1 75.891 490.24 75.0644 490.24ZM82.3566 494.4V480.08H84.1966L84.3566 481.6H84.4766C84.7432 481.107 85.1432 480.693 85.6766 480.36C86.2232 480.013 86.8699 479.84 87.6166 479.84C88.3899 479.84 89.0966 480.04 89.7366 480.44C90.3766 480.827 90.8832 481.407 91.2566 482.18C91.6432 482.94 91.8366 483.893 91.8366 485.04C91.8366 486.173 91.6366 487.127 91.2366 487.9C90.8499 488.673 90.3232 489.26 89.6566 489.66C88.9899 490.047 88.2432 490.24 87.4166 490.24C86.6832 490.24 86.0699 490.093 85.5766 489.8C85.0832 489.507 84.7166 489.173 84.4766 488.8V494.4H82.3566ZM87.0566 488.22C87.8032 488.22 88.4232 487.953 88.9166 487.42C89.4232 486.887 89.6766 486.087 89.6766 485.02C89.6766 483.953 89.4232 483.16 88.9166 482.64C88.4232 482.12 87.8032 481.86 87.0566 481.86C86.2966 481.86 85.6632 482.127 85.1566 482.66C84.6632 483.18 84.4166 483.973 84.4166 485.04C84.4166 486.093 84.6632 486.887 85.1566 487.42C85.6632 487.953 86.2966 488.22 87.0566 488.22ZM99.0888 490.24C98.1288 490.24 97.2821 490.027 96.5488 489.6C95.8154 489.16 95.2421 488.553 94.8288 487.78C94.4154 487.007 94.2088 486.107 94.2088 485.08C94.2088 484.04 94.4088 483.127 94.8088 482.34C95.2221 481.553 95.7954 480.94 96.5288 480.5C97.2754 480.06 98.1354 479.84 99.1088 479.84C100.069 479.84 100.895 480.06 101.589 480.5C102.282 480.927 102.815 481.5 103.189 482.22C103.575 482.94 103.769 483.733 103.769 484.6C103.769 484.733 103.769 484.88 103.769 485.04C103.769 485.187 103.762 485.353 103.749 485.54H96.2888C96.3554 486.46 96.6554 487.16 97.1888 487.64C97.7221 488.107 98.3488 488.34 99.0688 488.34C99.6954 488.34 100.189 488.213 100.549 487.96C100.922 487.693 101.195 487.333 101.369 486.88H103.509C103.269 487.827 102.769 488.627 102.009 489.28C101.249 489.92 100.275 490.24 99.0888 490.24ZM99.0888 481.68C98.4354 481.68 97.8554 481.88 97.3488 482.28C96.8421 482.667 96.5154 483.213 96.3688 483.92H101.649C101.595 483.253 101.335 482.713 100.869 482.3C100.402 481.887 99.8088 481.68 99.0888 481.68ZM106.521 490V480.08H108.361L108.541 481.56H108.641C108.908 481.08 109.321 480.673 109.881 480.34C110.441 480.007 111.088 479.84 111.821 479.84C113.034 479.84 113.948 480.207 114.561 480.94C115.174 481.673 115.481 482.753 115.481 484.18V490H113.361V484.44C113.361 483.613 113.188 482.973 112.841 482.52C112.494 482.067 111.948 481.84 111.201 481.84C110.468 481.84 109.854 482.087 109.361 482.58C108.881 483.073 108.641 483.787 108.641 484.72V490H106.521ZM122.413 490.24C121.586 490.24 120.846 490.047 120.193 489.66C119.54 489.26 119.02 488.673 118.633 487.9C118.26 487.127 118.073 486.173 118.073 485.04C118.073 483.907 118.266 482.953 118.653 482.18C119.04 481.407 119.56 480.827 120.213 480.44C120.88 480.04 121.62 479.84 122.433 479.84C123.193 479.84 123.82 479.987 124.313 480.28C124.806 480.56 125.173 480.92 125.413 481.36V475.6H127.533V490H125.713L125.533 488.54H125.413C125.146 489.06 124.766 489.473 124.273 489.78C123.793 490.087 123.173 490.24 122.413 490.24ZM122.853 488.22C123.613 488.22 124.24 487.953 124.733 487.42C125.24 486.887 125.493 486.093 125.493 485.04C125.493 483.973 125.24 483.18 124.733 482.66C124.24 482.127 123.613 481.86 122.853 481.86C122.093 481.86 121.46 482.127 120.953 482.66C120.46 483.193 120.213 483.993 120.213 485.06C120.213 486.113 120.46 486.907 120.953 487.44C121.46 487.96 122.093 488.22 122.853 488.22ZM134.745 478.56C134.279 478.56 133.885 478.413 133.565 478.12C133.259 477.813 133.105 477.44 133.105 477C133.105 476.56 133.259 476.193 133.565 475.9C133.885 475.607 134.279 475.46 134.745 475.46C135.225 475.46 135.619 475.607 135.925 475.9C136.245 476.193 136.405 476.56 136.405 477C136.405 477.44 136.245 477.813 135.925 478.12C135.619 478.413 135.225 478.56 134.745 478.56ZM130.765 490V488.16H133.885V482.58C133.885 482.14 133.672 481.92 133.245 481.92H131.045V480.08H133.625C134.452 480.08 135.052 480.273 135.425 480.66C135.812 481.033 136.005 481.633 136.005 482.46V488.16H139.125V490H130.765ZM147.018 490.24C145.711 490.24 144.671 489.933 143.898 489.32C143.124 488.707 142.684 487.893 142.578 486.88H144.758C144.838 487.347 145.071 487.727 145.458 488.02C145.858 488.313 146.384 488.46 147.038 488.46C147.664 488.46 148.144 488.333 148.478 488.08C148.824 487.813 148.998 487.507 148.998 487.16C148.998 486.653 148.791 486.307 148.378 486.12C147.978 485.933 147.384 485.793 146.598 485.7C145.918 485.62 145.298 485.467 144.738 485.24C144.191 485 143.758 484.68 143.438 484.28C143.118 483.867 142.958 483.353 142.958 482.74C142.958 481.873 143.298 481.173 143.978 480.64C144.658 480.107 145.604 479.84 146.817 479.84C148.031 479.84 148.971 480.113 149.638 480.66C150.304 481.207 150.691 481.953 150.798 482.9H148.758C148.704 482.5 148.498 482.187 148.138 481.96C147.778 481.72 147.331 481.6 146.798 481.6C146.251 481.6 145.818 481.707 145.498 481.92C145.178 482.12 145.018 482.387 145.018 482.72C145.018 483.44 145.791 483.88 147.338 484.04C148.071 484.12 148.724 484.26 149.298 484.46C149.871 484.647 150.324 484.947 150.658 485.36C150.991 485.76 151.158 486.327 151.158 487.06C151.171 487.66 150.998 488.2 150.638 488.68C150.291 489.16 149.804 489.54 149.178 489.82C148.564 490.1 147.844 490.24 147.018 490.24ZM159.01 490.24C157.703 490.24 156.663 489.933 155.89 489.32C155.116 488.707 154.676 487.893 154.57 486.88H156.75C156.83 487.347 157.063 487.727 157.45 488.02C157.85 488.313 158.376 488.46 159.03 488.46C159.656 488.46 160.136 488.333 160.47 488.08C160.816 487.813 160.99 487.507 160.99 487.16C160.99 486.653 160.783 486.307 160.37 486.12C159.97 485.933 159.376 485.793 158.59 485.7C157.91 485.62 157.29 485.467 156.73 485.24C156.183 485 155.75 484.68 155.43 484.28C155.11 483.867 154.95 483.353 154.95 482.74C154.95 481.873 155.29 481.173 155.97 480.64C156.65 480.107 157.596 479.84 158.81 479.84C160.023 479.84 160.963 480.113 161.63 480.66C162.296 481.207 162.683 481.953 162.79 482.9H160.75C160.696 482.5 160.49 482.187 160.13 481.96C159.77 481.72 159.323 481.6 158.79 481.6C158.243 481.6 157.81 481.707 157.49 481.92C157.17 482.12 157.01 482.387 157.01 482.72C157.01 483.44 157.783 483.88 159.33 484.04C160.063 484.12 160.716 484.26 161.29 484.46C161.863 484.647 162.316 484.947 162.65 485.36C162.983 485.76 163.15 486.327 163.15 487.06C163.163 487.66 162.99 488.2 162.63 488.68C162.283 489.16 161.796 489.54 161.17 489.82C160.556 490.1 159.836 490.24 159.01 490.24ZM171.042 490.24C170.082 490.24 169.235 490.027 168.502 489.6C167.769 489.16 167.195 488.553 166.782 487.78C166.369 487.007 166.162 486.107 166.162 485.08C166.162 484.04 166.362 483.127 166.762 482.34C167.175 481.553 167.749 480.94 168.482 480.5C169.229 480.06 170.089 479.84 171.062 479.84C172.022 479.84 172.849 480.06 173.542 480.5C174.235 480.927 174.769 481.5 175.142 482.22C175.529 482.94 175.722 483.733 175.722 484.6C175.722 484.733 175.722 484.88 175.722 485.04C175.722 485.187 175.715 485.353 175.702 485.54H168.242C168.309 486.46 168.609 487.16 169.142 487.64C169.675 488.107 170.302 488.34 171.022 488.34C171.649 488.34 172.142 488.213 172.502 487.96C172.875 487.693 173.149 487.333 173.322 486.88H175.462C175.222 487.827 174.722 488.627 173.962 489.28C173.202 489.92 172.229 490.24 171.042 490.24ZM171.042 481.68C170.389 481.68 169.809 481.88 169.302 482.28C168.795 482.667 168.469 483.213 168.322 483.92H173.602C173.549 483.253 173.289 482.713 172.822 482.3C172.355 481.887 171.762 481.68 171.042 481.68ZM193.626 490L189.326 480.08H191.726L194.906 487.76L198.106 480.08H200.486L196.166 490H193.626ZM207.018 490.24C206.058 490.24 205.212 490.027 204.478 489.6C203.745 489.16 203.172 488.553 202.758 487.78C202.345 487.007 202.138 486.107 202.138 485.08C202.138 484.04 202.338 483.127 202.738 482.34C203.152 481.553 203.725 480.94 204.458 480.5C205.205 480.06 206.065 479.84 207.038 479.84C207.998 479.84 208.825 480.06 209.518 480.5C210.212 480.927 210.745 481.5 211.118 482.22C211.505 482.94 211.698 483.733 211.698 484.6C211.698 484.733 211.698 484.88 211.698 485.04C211.698 485.187 211.692 485.353 211.678 485.54H204.218C204.285 486.46 204.585 487.16 205.118 487.64C205.652 488.107 206.278 488.34 206.998 488.34C207.625 488.34 208.118 488.213 208.478 487.96C208.852 487.693 209.125 487.333 209.298 486.88H211.438C211.198 487.827 210.698 488.627 209.938 489.28C209.178 489.92 208.205 490.24 207.018 490.24ZM207.018 481.68C206.365 481.68 205.785 481.88 205.278 482.28C204.772 482.667 204.445 483.213 204.298 483.92H209.578C209.525 483.253 209.265 482.713 208.798 482.3C208.332 481.887 207.738 481.68 207.018 481.68ZM214.251 490V488.16H217.571V478.1C217.571 477.66 217.357 477.44 216.931 477.44H214.531V475.6H217.311C218.084 475.6 218.671 475.807 219.071 476.22C219.484 476.62 219.691 477.207 219.691 477.98V488.16H223.031V490H214.251ZM230.883 490.12C230.389 490.12 229.969 489.96 229.623 489.64C229.276 489.307 229.103 488.907 229.103 488.44C229.103 487.973 229.276 487.58 229.623 487.26C229.969 486.94 230.389 486.78 230.883 486.78C231.389 486.78 231.809 486.94 232.143 487.26C232.489 487.58 232.663 487.973 232.663 488.44C232.663 488.907 232.489 489.307 232.143 489.64C231.809 489.96 231.389 490.12 230.883 490.12Z" fill="black"/>
</svg>
