<svg width="390" height="102" viewBox="0 0 390 102" fill="none" xmlns="http://www.w3.org/2000/svg">
<path d="M34.6173 11.96C34.2707 9.74667 33.524 8.08 32.3773 6.96C31.2573 5.84 29.764 5.26667 27.8973 5.24C26.5107 5.24 25.2973 5.56 24.2573 6.2C23.2173 6.84 22.3507 7.69333 21.6573 8.76C20.9907 9.82667 20.484 11.04 20.1373 12.4C19.8173 13.76 19.6573 15.16 19.6573 16.6C19.6573 18.8933 19.9773 20.9333 20.6173 22.72C21.284 24.48 22.244 25.8667 23.4973 26.88C24.7507 27.8933 26.2707 28.4 28.0573 28.4C29.7373 28.4 31.404 27.9733 33.0573 27.12C34.7107 26.24 36.0973 25.0267 37.2173 23.48L39.1373 25.24C37.8307 27.0267 36.4573 28.3867 35.0173 29.32C33.5773 30.2267 32.164 30.84 30.7773 31.16C29.4173 31.48 28.1907 31.64 27.0973 31.64C25.044 31.64 23.1773 31.28 21.4973 30.56C19.8173 29.8133 18.364 28.8 17.1373 27.52C15.9373 26.2133 15.004 24.7067 14.3373 23C13.6973 21.2667 13.3773 19.4 13.3773 17.4C13.3773 15.5867 13.6707 13.7867 14.2573 12C14.844 10.2133 15.7107 8.6 16.8573 7.16C18.0307 5.69333 19.4973 4.53333 21.2573 3.68C23.0173 2.8 25.0573 2.36 27.3773 2.36C28.4173 2.36 29.5507 2.53333 30.7773 2.88C32.0307 3.2 33.204 3.68 34.2973 4.32L34.1373 2.64H37.2173V11.96H34.6173ZM51.4364 31.64C49.4897 31.64 47.7697 31.2133 46.2764 30.36C44.7831 29.48 43.6231 28.2533 42.7964 26.68C41.9697 25.08 41.5564 23.2 41.5564 21.04C41.5564 19.1733 41.9697 17.4267 42.7964 15.8C43.6231 14.1733 44.7831 12.8667 46.2764 11.88C47.7964 10.8667 49.5564 10.36 51.5564 10.36C52.6764 10.36 53.7697 10.52 54.8364 10.84C55.9031 11.1333 56.8631 11.6533 57.7164 12.4C58.5964 13.1467 59.2897 14.16 59.7964 15.44C60.3297 16.72 60.5831 18.32 60.5564 20.24L47.4364 20.48C47.4364 21.92 47.6097 23.2133 47.9564 24.36C48.3297 25.5067 48.9297 26.4133 49.7564 27.08C50.5831 27.7467 51.6897 28.08 53.0764 28.08C53.6097 28.08 54.2097 27.9867 54.8764 27.8C55.5697 27.6133 56.2631 27.3067 56.9564 26.88C57.6764 26.4267 58.3431 25.8267 58.9564 25.08L60.7564 26.76C59.7964 28.12 58.7697 29.16 57.6764 29.88C56.5831 30.5733 55.4897 31.04 54.3964 31.28C53.3297 31.52 52.3431 31.64 51.4364 31.64ZM47.6764 17.68H55.0364C55.0097 16.56 54.8497 15.68 54.5564 15.04C54.2897 14.3733 53.9164 13.8933 53.4364 13.6C52.9564 13.3067 52.3964 13.16 51.7564 13.16C50.5831 13.16 49.6631 13.5867 48.9964 14.44C48.3297 15.2667 47.8897 16.3467 47.6764 17.68ZM64.2798 31V28.4C65.0265 28.4 65.5598 28.2533 65.8798 27.96C66.1998 27.6667 66.3998 27.2533 66.4798 26.72C66.5865 26.16 66.6398 25.5333 66.6398 24.84V18.12C66.6398 17.64 66.6532 17.1067 66.6798 16.52C66.7065 15.9067 66.7465 15.3067 66.7998 14.72C66.3732 14.7467 65.8665 14.7733 65.2798 14.8C64.7198 14.8 64.2932 14.8133 63.9998 14.84V11.8C65.2265 11.8 66.2665 11.7333 67.1198 11.6C67.9732 11.4667 68.6398 11.3067 69.1198 11.12C69.6265 10.9333 69.9732 10.76 70.1598 10.6H72.1198C72.1732 10.9467 72.1998 11.2 72.1998 11.36C72.1998 11.52 72.1998 11.68 72.1998 11.84C72.2265 11.9733 72.2798 12.2267 72.3598 12.6C72.8932 12.1733 73.5065 11.8 74.1998 11.48C74.8932 11.1333 75.5865 10.8667 76.2798 10.68C76.9732 10.4667 77.5865 10.36 78.1198 10.36C80.5732 10.36 82.3065 11.0667 83.3198 12.48C84.3598 13.8667 84.8798 16.1067 84.8798 19.2V24.56C84.8798 24.9333 84.8665 25.4667 84.8398 26.16C84.8132 26.8267 84.7732 27.4667 84.7198 28.08C85.1732 28.0267 85.6532 28 86.1598 28C86.6665 27.9733 87.0532 27.96 87.3198 27.96V31H76.8398V28.4C77.5865 28.4 78.1198 28.2533 78.4398 27.96C78.7865 27.6667 78.9998 27.2533 79.0798 26.72C79.1865 26.16 79.2398 25.5333 79.2398 24.84L79.1998 19.16C79.1998 17.4267 78.9465 16.1467 78.4398 15.32C77.9598 14.4667 77.1332 14.04 75.9598 14.04C75.2932 14.04 74.6265 14.1867 73.9598 14.48C73.3198 14.7733 72.7732 15.12 72.3198 15.52C72.3198 15.8933 72.3198 16.28 72.3198 16.68C72.3198 17.0533 72.3198 17.4267 72.3198 17.8V24.56C72.3198 24.9333 72.3065 25.4667 72.2798 26.16C72.2532 26.8267 72.2132 27.4667 72.1598 28.08C72.5865 28.0267 73.0532 28 73.5598 28C74.0932 27.9733 74.4932 27.96 74.7598 27.96V31H64.2798ZM98.1952 31.64C97.3952 31.64 96.6218 31.5467 95.8752 31.36C95.1552 31.1733 94.4885 30.8267 93.8752 30.32C93.2885 29.7867 92.8218 29.0133 92.4752 28C92.1285 26.9867 91.9552 25.64 91.9552 23.96L92.0352 14.32H89.3152V11C90.1418 10.9733 90.9418 10.6933 91.7152 10.16C92.4885 9.62667 93.1418 8.93333 93.6752 8.08C94.2352 7.22667 94.6085 6.33333 94.7952 5.4H97.7552L97.7152 11H102.795V14.08L97.7152 14.2L97.6752 24.04C97.6752 24.6533 97.7285 25.2667 97.8352 25.88C97.9685 26.4667 98.2085 26.96 98.5552 27.36C98.9018 27.7333 99.4085 27.92 100.075 27.92C100.448 27.92 100.955 27.7867 101.595 27.52C102.262 27.2533 102.968 26.5867 103.715 25.52L105.635 27.32C104.915 28.3867 104.168 29.2133 103.395 29.8C102.622 30.3867 101.875 30.8133 101.155 31.08C100.462 31.3467 99.8485 31.5067 99.3152 31.56C98.7818 31.6133 98.4085 31.64 98.1952 31.64ZM117.079 31.64C115.132 31.64 113.412 31.2133 111.919 30.36C110.425 29.48 109.265 28.2533 108.439 26.68C107.612 25.08 107.199 23.2 107.199 21.04C107.199 19.1733 107.612 17.4267 108.439 15.8C109.265 14.1733 110.425 12.8667 111.919 11.88C113.439 10.8667 115.199 10.36 117.199 10.36C118.319 10.36 119.412 10.52 120.479 10.84C121.545 11.1333 122.505 11.6533 123.359 12.4C124.239 13.1467 124.932 14.16 125.439 15.44C125.972 16.72 126.225 18.32 126.199 20.24L113.079 20.48C113.079 21.92 113.252 23.2133 113.599 24.36C113.972 25.5067 114.572 26.4133 115.399 27.08C116.225 27.7467 117.332 28.08 118.719 28.08C119.252 28.08 119.852 27.9867 120.519 27.8C121.212 27.6133 121.905 27.3067 122.599 26.88C123.319 26.4267 123.985 25.8267 124.599 25.08L126.399 26.76C125.439 28.12 124.412 29.16 123.319 29.88C122.225 30.5733 121.132 31.04 120.039 31.28C118.972 31.52 117.985 31.64 117.079 31.64ZM113.319 17.68H120.679C120.652 16.56 120.492 15.68 120.199 15.04C119.932 14.3733 119.559 13.8933 119.079 13.6C118.599 13.3067 118.039 13.16 117.399 13.16C116.225 13.16 115.305 13.5867 114.639 14.44C113.972 15.2667 113.532 16.3467 113.319 17.68ZM129.922 28.4C130.669 28.4 131.202 28.2533 131.522 27.96C131.842 27.6667 132.042 27.2533 132.122 26.72C132.229 26.16 132.282 25.5333 132.282 24.84V18.12C132.282 17.64 132.295 17.1067 132.322 16.52C132.349 15.9067 132.389 15.3067 132.442 14.72C132.015 14.7467 131.509 14.7733 130.922 14.8C130.362 14.8 129.935 14.8133 129.642 14.84V11.8H131.242C132.282 11.8 133.229 11.6667 134.082 11.4C134.962 11.1333 135.535 10.8667 135.802 10.6H137.762C137.815 10.8667 137.855 11.3733 137.882 12.12C137.909 12.84 137.922 13.48 137.922 14.04C138.642 13.16 139.322 12.4533 139.962 11.92C140.602 11.3867 141.229 11 141.842 10.76C142.482 10.4933 143.122 10.36 143.762 10.36C144.695 10.36 145.509 10.6267 146.202 11.16C146.895 11.6667 147.242 12.5067 147.242 13.68C147.242 14.08 147.149 14.5067 146.962 14.96C146.775 15.3867 146.482 15.7467 146.082 16.04C145.682 16.3333 145.135 16.48 144.442 16.48C143.909 16.48 143.362 16.32 142.802 16C142.242 15.68 141.922 15.0667 141.842 14.16C141.309 14.16 140.775 14.3867 140.242 14.84C139.709 15.2667 139.229 15.7867 138.802 16.4C138.402 16.9867 138.122 17.5333 137.962 18.04V24.56C137.962 24.9333 137.949 25.4667 137.922 26.16C137.895 26.8267 137.855 27.4667 137.802 28.08C138.229 28.0267 138.695 28 139.202 28C139.735 27.9733 140.135 27.96 140.402 27.96V31H129.922V28.4ZM169.169 31.64C168.369 31.64 167.595 31.5467 166.849 31.36C166.129 31.1733 165.462 30.8267 164.849 30.32C164.262 29.7867 163.795 29.0133 163.449 28C163.102 26.9867 162.929 25.64 162.929 23.96L163.009 14.32H160.289V11C161.115 10.9733 161.915 10.6933 162.689 10.16C163.462 9.62667 164.115 8.93333 164.649 8.08C165.209 7.22667 165.582 6.33333 165.769 5.4H168.729L168.689 11H173.769V14.08L168.689 14.2L168.649 24.04C168.649 24.6533 168.702 25.2667 168.809 25.88C168.942 26.4667 169.182 26.96 169.529 27.36C169.875 27.7333 170.382 27.92 171.049 27.92C171.422 27.92 171.929 27.7867 172.569 27.52C173.235 27.2533 173.942 26.5867 174.689 25.52L176.609 27.32C175.889 28.3867 175.142 29.2133 174.369 29.8C173.595 30.3867 172.849 30.8133 172.129 31.08C171.435 31.3467 170.822 31.5067 170.289 31.56C169.755 31.6133 169.382 31.64 169.169 31.64ZM188.372 31.64C186.452 31.64 184.719 31.2267 183.172 30.4C181.625 29.5733 180.399 28.4 179.492 26.88C178.612 25.3333 178.172 23.52 178.172 21.44C178.172 19.2267 178.625 17.2933 179.532 15.64C180.465 13.96 181.692 12.6667 183.212 11.76C184.759 10.8267 186.439 10.36 188.252 10.36C190.172 10.36 191.892 10.7733 193.412 11.6C194.932 12.4267 196.132 13.6133 197.012 15.16C197.892 16.68 198.332 18.5067 198.332 20.64C198.332 22.88 197.905 24.8267 197.052 26.48C196.199 28.1333 195.025 29.4133 193.532 30.32C192.039 31.2 190.319 31.64 188.372 31.64ZM188.532 28.8C189.599 28.7733 190.399 28.4 190.932 27.68C191.492 26.96 191.879 26.0533 192.092 24.96C192.305 23.8667 192.412 22.76 192.412 21.64C192.412 20.6533 192.332 19.6533 192.172 18.64C192.039 17.6267 191.812 16.7067 191.492 15.88C191.172 15.0533 190.732 14.3867 190.172 13.88C189.639 13.3733 188.972 13.1333 188.172 13.16C187.132 13.1867 186.305 13.56 185.692 14.28C185.105 15 184.679 15.9067 184.412 17C184.172 18.0667 184.052 19.1867 184.052 20.36C184.052 21.72 184.199 23.0533 184.492 24.36C184.785 25.6667 185.252 26.7467 185.892 27.6C186.559 28.4267 187.439 28.8267 188.532 28.8ZM211.856 31V28.24C212.603 28.24 213.203 28.0267 213.656 27.6C214.109 27.1733 214.483 26.6133 214.776 25.92C215.096 25.2267 215.403 24.48 215.696 23.68L223.496 2.28H226.296L234.816 24.08C234.976 24.48 235.189 25.0933 235.456 25.92C235.723 26.72 235.883 27.4267 235.936 28.04C236.389 27.9867 236.816 27.96 237.216 27.96C237.643 27.9333 237.989 27.92 238.256 27.92V31H227.496V28.36C228.243 28.36 228.749 28.2133 229.016 27.92C229.309 27.6 229.443 27.1733 229.416 26.64C229.389 26.1067 229.243 25.5067 228.976 24.84L228.176 22.64L219.496 22.8L218.856 24.68C218.723 25.0267 218.523 25.5467 218.256 26.24C218.016 26.9067 217.789 27.4667 217.576 27.92C218.003 27.8667 218.509 27.84 219.096 27.84C219.709 27.8133 220.149 27.8 220.416 27.8V31H211.856ZM220.496 19.8H227.176L225.336 14.8C224.989 13.84 224.683 12.88 224.416 11.92C224.149 10.9333 223.949 10.0667 223.816 9.32H223.776C223.669 9.77333 223.509 10.4533 223.296 11.36C223.083 12.2667 222.749 13.3467 222.296 14.6L220.496 19.8ZM248.067 31.64C246.467 31.64 245.054 31.2267 243.827 30.4C242.627 29.5733 241.68 28.4 240.987 26.88C240.32 25.36 239.987 23.5733 239.987 21.52C239.987 19.36 240.4 17.44 241.227 15.76C242.054 14.08 243.214 12.76 244.707 11.8C246.2 10.84 247.934 10.36 249.907 10.36C250.627 10.36 251.267 10.44 251.827 10.6C252.414 10.7333 252.96 10.8933 253.467 11.08V8.44C253.467 8.06667 253.48 7.53333 253.507 6.84C253.534 6.14666 253.574 5.50667 253.627 4.92C253.2 4.94667 252.694 4.97333 252.107 5C251.52 5.02666 251.08 5.04 250.787 5.04V2C252.04 2 253.08 1.93333 253.907 1.8C254.76 1.66667 255.427 1.50667 255.907 1.32C256.414 1.13333 256.76 0.959999 256.947 0.799998H259.107V24.56C259.107 24.9333 259.094 25.4667 259.067 26.16C259.04 26.8267 259 27.4667 258.947 28.08C259.4 28.0267 259.88 28 260.387 28C260.894 27.9733 261.28 27.96 261.547 27.96V31H253.947C253.92 30.7067 253.88 30.4 253.827 30.08C253.8 29.76 253.76 29.4533 253.707 29.16C252.827 30.0667 251.92 30.7067 250.987 31.08C250.054 31.4533 249.08 31.64 248.067 31.64ZM250.147 28C250.84 28 251.48 27.8267 252.067 27.48C252.654 27.1067 253.12 26.64 253.467 26.08C253.467 25.68 253.467 25.28 253.467 24.88C253.467 24.48 253.467 24.08 253.467 23.68V14.08C253.2 13.8667 252.8 13.6933 252.267 13.56C251.734 13.4 251.187 13.32 250.627 13.32C249.4 13.3467 248.44 13.7333 247.747 14.48C247.054 15.2267 246.56 16.1733 246.267 17.32C246 18.4667 245.867 19.6667 245.867 20.92C245.867 22.04 246 23.1467 246.267 24.24C246.56 25.3333 247.014 26.24 247.627 26.96C248.267 27.6533 249.107 28 250.147 28ZM272.103 31.12L265.783 17.24C265.489 16.5733 265.276 16.0667 265.143 15.72C265.036 15.3733 264.956 15.08 264.903 14.84C264.876 14.5733 264.823 14.28 264.743 13.96L263.263 14.04V11H272.623V13.56C272.063 13.5867 271.689 13.7467 271.503 14.04C271.316 14.3333 271.249 14.72 271.303 15.2C271.356 15.6533 271.476 16.1467 271.663 16.68L273.743 21.8C273.956 22.3067 274.169 22.8267 274.383 23.36C274.596 23.8933 274.809 24.4267 275.023 24.96H275.063C275.276 24.4 275.476 23.84 275.663 23.28C275.876 22.72 276.076 22.16 276.263 21.6L277.983 16.72C278.223 16.0533 278.436 15.52 278.623 15.12C278.836 14.72 279.063 14.3067 279.303 13.88L276.823 14.04V11H284.423V13.56C283.809 13.6667 283.263 14.0133 282.783 14.6C282.303 15.16 281.889 15.8 281.543 16.52C281.196 17.2133 280.916 17.8267 280.703 18.36L275.583 31.12H272.103ZM297.95 31C297.896 30.6267 297.856 30.32 297.83 30.08C297.83 29.8133 297.816 29.5067 297.79 29.16C296.883 30.0667 295.923 30.7067 294.91 31.08C293.896 31.4533 292.87 31.64 291.83 31.64C290.123 31.64 288.79 31.1333 287.83 30.12C286.87 29.1067 286.39 27.84 286.39 26.32C286.39 25.04 286.71 23.9467 287.35 23.04C288.016 22.1333 288.883 21.4 289.95 20.84C291.043 20.2533 292.243 19.8133 293.55 19.52C294.883 19.2 296.216 19.0133 297.55 18.96V16.88C297.55 16.1867 297.456 15.56 297.27 15C297.11 14.44 296.816 14 296.39 13.68C295.99 13.36 295.416 13.2133 294.67 13.24C294.163 13.2667 293.67 13.3733 293.19 13.56C292.71 13.7467 292.296 14.0133 291.95 14.36C292.163 14.6 292.296 14.8667 292.35 15.16C292.403 15.4267 292.43 15.6667 292.43 15.88C292.43 16.4133 292.216 16.9733 291.79 17.56C291.363 18.12 290.683 18.3867 289.75 18.36C288.95 18.3333 288.336 18.0533 287.91 17.52C287.483 16.9867 287.27 16.36 287.27 15.64C287.27 14.5733 287.643 13.6533 288.39 12.88C289.163 12.08 290.19 11.4667 291.47 11.04C292.75 10.5867 294.163 10.36 295.71 10.36C298.056 10.36 299.87 10.9733 301.15 12.2C302.456 13.4 303.11 15.3333 303.11 18C303.11 18.9067 303.11 19.68 303.11 20.32C303.11 20.96 303.096 21.6 303.07 22.24C303.07 22.88 303.07 23.6533 303.07 24.56C303.07 24.9333 303.056 25.4667 303.03 26.16C303.003 26.8267 302.963 27.4667 302.91 28.08C303.363 28.0267 303.843 28 304.35 28C304.856 27.9733 305.243 27.96 305.51 27.96V31H297.95ZM297.51 21.8C296.763 21.88 296.056 22.0133 295.39 22.2C294.723 22.3867 294.136 22.64 293.63 22.96C293.15 23.28 292.763 23.6667 292.47 24.12C292.203 24.5733 292.07 25.08 292.07 25.64C292.096 26.3867 292.336 26.92 292.79 27.24C293.243 27.56 293.763 27.72 294.35 27.72C294.963 27.72 295.536 27.5867 296.07 27.32C296.603 27.0533 297.083 26.7067 297.51 26.28C297.51 26.0133 297.51 25.76 297.51 25.52C297.51 25.2533 297.51 24.9867 297.51 24.72C297.51 24.24 297.51 23.76 297.51 23.28C297.51 22.7733 297.51 22.28 297.51 21.8ZM308.606 31V28.4C309.353 28.4 309.886 28.2533 310.206 27.96C310.526 27.6667 310.726 27.2533 310.806 26.72C310.913 26.16 310.966 25.5333 310.966 24.84V18.12C310.966 17.64 310.98 17.1067 311.006 16.52C311.033 15.9067 311.073 15.3067 311.126 14.72C310.7 14.7467 310.193 14.7733 309.606 14.8C309.046 14.8 308.62 14.8133 308.326 14.84V11.8C309.553 11.8 310.593 11.7333 311.446 11.6C312.3 11.4667 312.966 11.3067 313.446 11.12C313.953 10.9333 314.3 10.76 314.486 10.6H316.446C316.5 10.9467 316.526 11.2 316.526 11.36C316.526 11.52 316.526 11.68 316.526 11.84C316.553 11.9733 316.606 12.2267 316.686 12.6C317.22 12.1733 317.833 11.8 318.526 11.48C319.22 11.1333 319.913 10.8667 320.606 10.68C321.3 10.4667 321.913 10.36 322.446 10.36C324.9 10.36 326.633 11.0667 327.646 12.48C328.686 13.8667 329.206 16.1067 329.206 19.2V24.56C329.206 24.9333 329.193 25.4667 329.166 26.16C329.14 26.8267 329.1 27.4667 329.046 28.08C329.5 28.0267 329.98 28 330.486 28C330.993 27.9733 331.38 27.96 331.646 27.96V31H321.166V28.4C321.913 28.4 322.446 28.2533 322.766 27.96C323.113 27.6667 323.326 27.2533 323.406 26.72C323.513 26.16 323.566 25.5333 323.566 24.84L323.526 19.16C323.526 17.4267 323.273 16.1467 322.766 15.32C322.286 14.4667 321.46 14.04 320.286 14.04C319.62 14.04 318.953 14.1867 318.286 14.48C317.646 14.7733 317.1 15.12 316.646 15.52C316.646 15.8933 316.646 16.28 316.646 16.68C316.646 17.0533 316.646 17.4267 316.646 17.8V24.56C316.646 24.9333 316.633 25.4667 316.606 26.16C316.58 26.8267 316.54 27.4667 316.486 28.08C316.913 28.0267 317.38 28 317.886 28C318.42 27.9733 318.82 27.96 319.086 27.96V31H308.606ZM344.276 31.64C342.489 31.64 340.849 31.24 339.356 30.44C337.863 29.64 336.663 28.48 335.756 26.96C334.876 25.44 334.436 23.6 334.436 21.44C334.436 19.92 334.689 18.4933 335.196 17.16C335.703 15.8267 336.409 14.6533 337.316 13.64C338.249 12.6267 339.343 11.8267 340.596 11.24C341.876 10.6533 343.289 10.36 344.836 10.36C346.543 10.36 347.956 10.6267 349.076 11.16C350.223 11.6667 351.076 12.3467 351.636 13.2C352.223 14.0267 352.516 14.9067 352.516 15.84C352.516 16.6133 352.276 17.3067 351.796 17.92C351.343 18.5067 350.689 18.8133 349.836 18.84C348.823 18.8667 348.116 18.5867 347.716 18C347.316 17.3867 347.116 16.8 347.116 16.24C347.116 16 347.156 15.72 347.236 15.4C347.316 15.0533 347.436 14.7467 347.596 14.48C347.409 14.08 347.129 13.7867 346.756 13.6C346.383 13.4133 345.996 13.2933 345.596 13.24C345.223 13.16 344.916 13.1333 344.676 13.16C343.396 13.24 342.343 13.88 341.516 15.08C340.689 16.28 340.276 18.0133 340.276 20.28C340.276 21.6133 340.436 22.8667 340.756 24.04C341.103 25.1867 341.663 26.1333 342.436 26.88C343.209 27.6267 344.249 28.0267 345.556 28.08C346.676 28.1067 347.769 27.84 348.836 27.28C349.903 26.72 350.809 25.96 351.556 25L353.396 26.8C352.436 28.1333 351.436 29.1467 350.396 29.84C349.356 30.5333 348.316 31 347.276 31.24C346.263 31.5067 345.263 31.64 344.276 31.64ZM365.819 31.64C363.873 31.64 362.153 31.2133 360.659 30.36C359.166 29.48 358.006 28.2533 357.179 26.68C356.353 25.08 355.939 23.2 355.939 21.04C355.939 19.1733 356.353 17.4267 357.179 15.8C358.006 14.1733 359.166 12.8667 360.659 11.88C362.179 10.8667 363.939 10.36 365.939 10.36C367.059 10.36 368.153 10.52 369.219 10.84C370.286 11.1333 371.246 11.6533 372.099 12.4C372.979 13.1467 373.673 14.16 374.179 15.44C374.713 16.72 374.966 18.32 374.939 20.24L361.819 20.48C361.819 21.92 361.993 23.2133 362.339 24.36C362.713 25.5067 363.313 26.4133 364.139 27.08C364.966 27.7467 366.073 28.08 367.459 28.08C367.993 28.08 368.593 27.9867 369.259 27.8C369.953 27.6133 370.646 27.3067 371.339 26.88C372.059 26.4267 372.726 25.8267 373.339 25.08L375.139 26.76C374.179 28.12 373.153 29.16 372.059 29.88C370.966 30.5733 369.873 31.04 368.779 31.28C367.713 31.52 366.726 31.64 365.819 31.64ZM362.059 17.68H369.419C369.393 16.56 369.233 15.68 368.939 15.04C368.673 14.3733 368.299 13.8933 367.819 13.6C367.339 13.3067 366.779 13.16 366.139 13.16C364.966 13.16 364.046 13.5867 363.379 14.44C362.713 15.2667 362.273 16.3467 362.059 17.68ZM0.375 91V88.36C0.988334 88.3333 1.495 88.2533 1.895 88.12C2.32167 87.9867 2.64167 87.68 2.855 87.2C3.095 86.72 3.215 85.9467 3.215 84.88V69.56C3.215 68.84 3.22833 68.1467 3.255 67.48C3.30833 66.8133 3.34833 66.3067 3.375 65.96C2.94833 65.9867 2.415 66.0133 1.775 66.04C1.135 66.04 0.668333 66.0533 0.375 66.08V63C2.26833 62.9733 4.16167 62.96 6.055 62.96C7.94833 62.96 9.84167 62.9467 11.735 62.92C14.0817 62.8933 16.1217 63.16 17.855 63.72C19.5883 64.28 20.9217 65.1867 21.855 66.44C22.7883 67.6933 23.2283 69.3867 23.175 71.52C23.1483 72.64 22.8683 73.7067 22.335 74.72C21.8283 75.7333 21.055 76.6267 20.015 77.4C19.0017 78.1733 17.7083 78.7867 16.135 79.24C16.6417 79.4533 17.135 79.8 17.615 80.28C18.1217 80.76 18.5483 81.2667 18.895 81.8L20.775 84.6C21.3617 85.5067 21.8817 86.2267 22.335 86.76C22.7883 87.2933 23.2417 87.6933 23.695 87.96C24.1483 88.2 24.6683 88.3333 25.255 88.36V91H18.655C18.175 90.6533 17.695 90.16 17.215 89.52C16.7617 88.8533 16.2683 88.0933 15.735 87.24L12.775 82.44C12.4283 81.9067 12.1217 81.4533 11.855 81.08C11.615 80.7067 11.3617 80.3867 11.095 80.12C10.6683 80.12 10.3083 80.12 10.015 80.12C9.72167 80.12 9.38833 80.12 9.015 80.12V84.4C9.015 85.1467 9.00167 85.8533 8.975 86.52C8.94833 87.1867 8.90833 87.6933 8.855 88.04C9.14833 88.0133 9.52167 88 9.975 88C10.4283 87.9733 10.8683 87.96 11.295 87.96C11.7483 87.9333 12.0683 87.92 12.255 87.92V91H0.375ZM10.935 77.24C12.4283 77.24 13.6283 77.0267 14.535 76.6C15.4417 76.1467 16.095 75.48 16.495 74.6C16.9217 73.6933 17.135 72.56 17.135 71.2C17.135 69.92 16.935 68.92 16.535 68.2C16.135 67.4533 15.6283 66.9067 15.015 66.56C14.4283 66.1867 13.8283 65.96 13.215 65.88C12.6017 65.7733 12.095 65.72 11.695 65.72C11.135 65.72 10.655 65.7867 10.255 65.92C9.855 66.0533 9.54833 66.3467 9.335 66.8C9.12167 67.2533 9.015 67.9467 9.015 68.88V77.08C9.30833 77.1067 9.615 77.1467 9.935 77.2C10.255 77.2267 10.5883 77.24 10.935 77.24ZM39.3569 91C39.3035 90.6267 39.2635 90.32 39.2369 90.08C39.2369 89.8133 39.2235 89.5067 39.1969 89.16C38.2902 90.0667 37.3302 90.7067 36.3169 91.08C35.3035 91.4533 34.2769 91.64 33.2369 91.64C31.5302 91.64 30.1969 91.1333 29.2369 90.12C28.2769 89.1067 27.7969 87.84 27.7969 86.32C27.7969 85.04 28.1169 83.9467 28.7569 83.04C29.4235 82.1333 30.2902 81.4 31.3569 80.84C32.4502 80.2533 33.6502 79.8133 34.9569 79.52C36.2902 79.2 37.6235 79.0133 38.9569 78.96V76.88C38.9569 76.1867 38.8635 75.56 38.6769 75C38.5169 74.44 38.2235 74 37.7969 73.68C37.3969 73.36 36.8235 73.2133 36.0769 73.24C35.5702 73.2667 35.0769 73.3733 34.5969 73.56C34.1169 73.7467 33.7035 74.0133 33.3569 74.36C33.5702 74.6 33.7035 74.8667 33.7569 75.16C33.8102 75.4267 33.8369 75.6667 33.8369 75.88C33.8369 76.4133 33.6235 76.9733 33.1969 77.56C32.7702 78.12 32.0902 78.3867 31.1569 78.36C30.3569 78.3333 29.7435 78.0533 29.3169 77.52C28.8902 76.9867 28.6769 76.36 28.6769 75.64C28.6769 74.5733 29.0502 73.6533 29.7969 72.88C30.5702 72.08 31.5969 71.4667 32.8769 71.04C34.1569 70.5867 35.5702 70.36 37.1169 70.36C39.4635 70.36 41.2769 70.9733 42.5569 72.2C43.8635 73.4 44.5169 75.3333 44.5169 78C44.5169 78.9067 44.5169 79.68 44.5169 80.32C44.5169 80.96 44.5035 81.6 44.4769 82.24C44.4769 82.88 44.4769 83.6533 44.4769 84.56C44.4769 84.9333 44.4635 85.4667 44.4369 86.16C44.4102 86.8267 44.3702 87.4667 44.3169 88.08C44.7702 88.0267 45.2502 88 45.7569 88C46.2635 87.9733 46.6502 87.96 46.9169 87.96V91H39.3569ZM38.9169 81.8C38.1702 81.88 37.4635 82.0133 36.7969 82.2C36.1302 82.3867 35.5435 82.64 35.0369 82.96C34.5569 83.28 34.1702 83.6667 33.8769 84.12C33.6102 84.5733 33.4769 85.08 33.4769 85.64C33.5035 86.3867 33.7435 86.92 34.1969 87.24C34.6502 87.56 35.1702 87.72 35.7569 87.72C36.3702 87.72 36.9435 87.5867 37.4769 87.32C38.0102 87.0533 38.4902 86.7067 38.9169 86.28C38.9169 86.0133 38.9169 85.76 38.9169 85.52C38.9169 85.2533 38.9169 84.9867 38.9169 84.72C38.9169 84.24 38.9169 83.76 38.9169 83.28C38.9169 82.7733 38.9169 82.28 38.9169 81.8ZM59.4534 91.64C57.6668 91.64 56.0268 91.24 54.5334 90.44C53.0401 89.64 51.8401 88.48 50.9334 86.96C50.0534 85.44 49.6134 83.6 49.6134 81.44C49.6134 79.92 49.8668 78.4933 50.3734 77.16C50.8801 75.8267 51.5868 74.6533 52.4934 73.64C53.4268 72.6267 54.5201 71.8267 55.7734 71.24C57.0534 70.6533 58.4668 70.36 60.0134 70.36C61.7201 70.36 63.1334 70.6267 64.2534 71.16C65.4001 71.6667 66.2534 72.3467 66.8134 73.2C67.4001 74.0267 67.6934 74.9067 67.6934 75.84C67.6934 76.6133 67.4534 77.3067 66.9734 77.92C66.5201 78.5067 65.8668 78.8133 65.0134 78.84C64.0001 78.8667 63.2934 78.5867 62.8934 78C62.4934 77.3867 62.2934 76.8 62.2934 76.24C62.2934 76 62.3334 75.72 62.4134 75.4C62.4934 75.0533 62.6134 74.7467 62.7734 74.48C62.5868 74.08 62.3068 73.7867 61.9334 73.6C61.5601 73.4133 61.1734 73.2933 60.7734 73.24C60.4001 73.16 60.0934 73.1333 59.8534 73.16C58.5734 73.24 57.5201 73.88 56.6934 75.08C55.8668 76.28 55.4534 78.0133 55.4534 80.28C55.4534 81.6133 55.6134 82.8667 55.9334 84.04C56.2801 85.1867 56.8401 86.1333 57.6134 86.88C58.3868 87.6267 59.4268 88.0267 60.7334 88.08C61.8534 88.1067 62.9468 87.84 64.0134 87.28C65.0801 86.72 65.9868 85.96 66.7334 85L68.5734 86.8C67.6134 88.1333 66.6134 89.1467 65.5734 89.84C64.5334 90.5333 63.4934 91 62.4534 91.24C61.4401 91.5067 60.4401 91.64 59.4534 91.64ZM71.5166 88.4C72.2632 88.4 72.7966 88.2533 73.1166 87.96C73.4366 87.6667 73.6366 87.2533 73.7166 86.72C73.8232 86.16 73.8766 85.5333 73.8766 84.84V78.2C73.8766 77.72 73.8899 77.1733 73.9166 76.56C73.9432 75.92 73.9832 75.3067 74.0366 74.72C73.6099 74.7467 73.1032 74.7733 72.5166 74.8C71.9566 74.8 71.5299 74.8133 71.2366 74.84V71.8C72.4632 71.8 73.5032 71.7333 74.3566 71.6C75.2099 71.4667 75.8766 71.3067 76.3566 71.12C76.8632 70.9333 77.2099 70.76 77.3966 70.6H79.5566V84.56C79.5566 84.9333 79.5432 85.4667 79.5166 86.16C79.4899 86.8267 79.4499 87.4667 79.3966 88.08C79.8232 88.0267 80.2899 88 80.7966 88C81.3299 87.9733 81.7299 87.96 81.9966 87.96V91H71.5166V88.4ZM76.5166 67.44C75.6099 67.44 74.8632 67.12 74.2766 66.48C73.6899 65.84 73.3966 65.0667 73.3966 64.16C73.3966 63.2533 73.7032 62.48 74.3166 61.84C74.9299 61.2 75.6499 60.88 76.4766 60.88C77.3299 60.88 78.0366 61.2 78.5966 61.84C79.1832 62.48 79.4766 63.2533 79.4766 64.16C79.4766 65.0667 79.2099 65.84 78.6766 66.48C78.1432 67.12 77.4232 67.44 76.5166 67.44ZM96.5225 91C96.4692 90.6267 96.4292 90.32 96.4025 90.08C96.4025 89.8133 96.3892 89.5067 96.3625 89.16C95.4558 90.0667 94.4958 90.7067 93.4825 91.08C92.4692 91.4533 91.4425 91.64 90.4025 91.64C88.6958 91.64 87.3625 91.1333 86.4025 90.12C85.4425 89.1067 84.9625 87.84 84.9625 86.32C84.9625 85.04 85.2825 83.9467 85.9225 83.04C86.5892 82.1333 87.4558 81.4 88.5225 80.84C89.6158 80.2533 90.8158 79.8133 92.1225 79.52C93.4558 79.2 94.7892 79.0133 96.1225 78.96V76.88C96.1225 76.1867 96.0292 75.56 95.8425 75C95.6825 74.44 95.3892 74 94.9625 73.68C94.5625 73.36 93.9892 73.2133 93.2425 73.24C92.7358 73.2667 92.2425 73.3733 91.7625 73.56C91.2825 73.7467 90.8692 74.0133 90.5225 74.36C90.7358 74.6 90.8692 74.8667 90.9225 75.16C90.9758 75.4267 91.0025 75.6667 91.0025 75.88C91.0025 76.4133 90.7892 76.9733 90.3625 77.56C89.9358 78.12 89.2558 78.3867 88.3225 78.36C87.5225 78.3333 86.9092 78.0533 86.4825 77.52C86.0558 76.9867 85.8425 76.36 85.8425 75.64C85.8425 74.5733 86.2158 73.6533 86.9625 72.88C87.7358 72.08 88.7625 71.4667 90.0425 71.04C91.3225 70.5867 92.7358 70.36 94.2825 70.36C96.6292 70.36 98.4425 70.9733 99.7225 72.2C101.029 73.4 101.682 75.3333 101.682 78C101.682 78.9067 101.682 79.68 101.682 80.32C101.682 80.96 101.669 81.6 101.642 82.24C101.642 82.88 101.642 83.6533 101.642 84.56C101.642 84.9333 101.629 85.4667 101.602 86.16C101.576 86.8267 101.536 87.4667 101.482 88.08C101.936 88.0267 102.416 88 102.922 88C103.429 87.9733 103.816 87.96 104.082 87.96V91H96.5225ZM96.0825 81.8C95.3358 81.88 94.6292 82.0133 93.9625 82.2C93.2958 82.3867 92.7092 82.64 92.2025 82.96C91.7225 83.28 91.3358 83.6667 91.0425 84.12C90.7758 84.5733 90.6425 85.08 90.6425 85.64C90.6692 86.3867 90.9092 86.92 91.3625 87.24C91.8158 87.56 92.3358 87.72 92.9225 87.72C93.5358 87.72 94.1092 87.5867 94.6425 87.32C95.1758 87.0533 95.6558 86.7067 96.0825 86.28C96.0825 86.0133 96.0825 85.76 96.0825 85.52C96.0825 85.2533 96.0825 84.9867 96.0825 84.72C96.0825 84.24 96.0825 83.76 96.0825 83.28C96.0825 82.7733 96.0825 82.28 96.0825 81.8ZM106.539 88.4C107.286 88.4 107.819 88.2533 108.139 87.96C108.486 87.6667 108.699 87.2533 108.779 86.72C108.859 86.16 108.899 85.5333 108.899 84.84V68.4C108.899 67.92 108.912 67.3733 108.939 66.76C108.966 66.12 109.006 65.5067 109.059 64.92C108.632 64.9467 108.126 64.9733 107.539 65C106.979 65 106.552 65.0133 106.259 65.04V62C107.512 62 108.552 61.9333 109.379 61.8C110.232 61.6667 110.899 61.5067 111.379 61.32C111.886 61.1333 112.232 60.96 112.419 60.8H114.579V84.56C114.579 84.9333 114.566 85.4667 114.539 86.16C114.512 86.8267 114.472 87.4667 114.419 88.08C114.872 88.0267 115.352 88 115.859 88C116.366 87.9733 116.752 87.96 117.019 87.96V91H106.539V88.4ZM145.708 81.36C145.708 80.24 145.534 79.44 145.188 78.96C144.841 78.4533 144.361 78.1333 143.748 78C143.161 77.8667 142.508 77.8133 141.788 77.84L140.748 77.88V84.44C140.748 85.16 140.734 85.84 140.708 86.48C140.681 87.12 140.641 87.6133 140.588 87.96H145.948C146.748 87.96 147.521 87.7867 148.268 87.44C149.014 87.0667 149.628 86.4667 150.108 85.64C150.588 84.7867 150.828 83.64 150.828 82.2H153.428L153.228 91H132.108V88.36C132.721 88.3333 133.228 88.2533 133.628 88.12C134.054 87.9867 134.374 87.68 134.588 87.2C134.828 86.72 134.948 85.9467 134.948 84.88V69.56C134.948 68.84 134.961 68.1467 134.988 67.48C135.041 66.8133 135.081 66.3067 135.108 65.96C134.681 65.9867 134.148 66.0133 133.508 66.04C132.868 66.04 132.401 66.0533 132.108 66.08V63H152.108L152.348 70.76H149.708C149.708 69.2933 149.454 68.1867 148.948 67.44C148.441 66.6933 147.814 66.2 147.068 65.96C146.321 65.6933 145.588 65.5733 144.868 65.6L143.428 65.64C142.868 65.64 142.388 65.72 141.988 65.88C141.588 66.0133 141.281 66.3333 141.068 66.84C140.854 67.32 140.748 68.08 140.748 69.12V75.12H145.428L145.268 71.64H148.348V81.36H145.708ZM168.112 101.2V98.6C168.859 98.6 169.392 98.4533 169.712 98.16C170.032 97.8667 170.232 97.44 170.312 96.88C170.419 96.3467 170.472 95.7333 170.472 95.04L170.512 89.4C169.659 90.2267 168.766 90.8 167.832 91.12C166.926 91.4667 166.006 91.64 165.072 91.64C163.472 91.64 162.059 91.2267 160.832 90.4C159.632 89.5733 158.686 88.4 157.992 86.88C157.326 85.36 156.992 83.5733 156.992 81.52C156.992 79.36 157.406 77.44 158.232 75.76C159.059 74.08 160.219 72.76 161.712 71.8C163.232 70.84 164.992 70.36 166.992 70.36C168.486 70.36 169.659 70.5067 170.512 70.8C171.392 71.0933 172.086 71.24 172.592 71.24C172.806 71.24 173.046 71.1867 173.312 71.08C173.606 70.9467 173.832 70.7867 173.992 70.6H176.152V94.76C176.152 95.1333 176.139 95.6533 176.112 96.32C176.086 97.0133 176.046 97.6667 175.992 98.28C176.419 98.2267 176.886 98.1867 177.392 98.16C177.926 98.16 178.326 98.16 178.592 98.16V101.2H168.112ZM167.152 88.04C167.819 88.04 168.446 87.8667 169.032 87.52C169.646 87.1733 170.126 86.72 170.472 86.16V76.8C170.472 75.7867 170.299 75.04 169.952 74.56C169.632 74.0533 169.232 73.72 168.752 73.56C168.299 73.3733 167.846 73.28 167.392 73.28C166.219 73.28 165.299 73.6667 164.632 74.44C163.966 75.1867 163.499 76.1467 163.232 77.32C162.966 78.4667 162.846 79.6667 162.872 80.92C162.899 82.04 163.046 83.1467 163.312 84.24C163.606 85.3333 164.059 86.24 164.672 86.96C165.286 87.68 166.112 88.04 167.152 88.04ZM189.362 91.64C187.762 91.64 186.469 91.3333 185.482 90.72C184.522 90.1067 183.816 89.1467 183.362 87.84C182.936 86.5333 182.722 84.8533 182.722 82.8V78.2C182.722 77.72 182.736 77.1733 182.762 76.56C182.789 75.92 182.816 75.3067 182.842 74.72C182.416 74.7467 181.909 74.7733 181.322 74.8C180.762 74.8 180.336 74.8133 180.042 74.84V71.8H180.442C182.096 71.8 183.402 71.6667 184.362 71.4C185.322 71.1333 185.936 70.8667 186.202 70.6H188.402V82.84C188.402 84.5733 188.629 85.8667 189.082 86.72C189.536 87.5467 190.256 87.96 191.242 87.96C191.936 87.96 192.629 87.7733 193.322 87.4C194.042 87 194.629 86.5467 195.082 86.04V78.2C195.082 77.72 195.096 77.1733 195.122 76.56C195.149 75.92 195.189 75.3067 195.242 74.72C194.816 74.7467 194.309 74.7733 193.722 74.8C193.162 74.8 192.736 74.8133 192.442 74.84V71.8H193.402C194.656 71.8 195.762 71.6667 196.722 71.4C197.682 71.1067 198.296 70.84 198.562 70.6H200.762V84.56C200.762 84.9333 200.749 85.4667 200.722 86.16C200.696 86.8267 200.656 87.4667 200.602 88.08C201.029 88.0267 201.496 88 202.002 88C202.536 87.9733 202.936 87.96 203.202 87.96V91H195.602C195.576 90.6533 195.536 90.3067 195.482 89.96C195.456 89.6133 195.416 89.2667 195.362 88.92C194.536 89.6133 193.642 90.24 192.682 90.8C191.749 91.36 190.642 91.64 189.362 91.64ZM206.609 88.4C207.355 88.4 207.889 88.2533 208.209 87.96C208.529 87.6667 208.729 87.2533 208.809 86.72C208.915 86.16 208.969 85.5333 208.969 84.84V78.2C208.969 77.72 208.982 77.1733 209.009 76.56C209.035 75.92 209.075 75.3067 209.129 74.72C208.702 74.7467 208.195 74.7733 207.609 74.8C207.049 74.8 206.622 74.8133 206.329 74.84V71.8C207.555 71.8 208.595 71.7333 209.449 71.6C210.302 71.4667 210.969 71.3067 211.449 71.12C211.955 70.9333 212.302 70.76 212.489 70.6H214.649V84.56C214.649 84.9333 214.635 85.4667 214.609 86.16C214.582 86.8267 214.542 87.4667 214.489 88.08C214.915 88.0267 215.382 88 215.889 88C216.422 87.9733 216.822 87.96 217.089 87.96V91H206.609V88.4ZM211.609 67.44C210.702 67.44 209.955 67.12 209.369 66.48C208.782 65.84 208.489 65.0667 208.489 64.16C208.489 63.2533 208.795 62.48 209.409 61.84C210.022 61.2 210.742 60.88 211.569 60.88C212.422 60.88 213.129 61.2 213.689 61.84C214.275 62.48 214.569 63.2533 214.569 64.16C214.569 65.0667 214.302 65.84 213.769 66.48C213.235 67.12 212.515 67.44 211.609 67.44ZM228.258 91.64C227.458 91.64 226.685 91.5467 225.938 91.36C225.218 91.1733 224.552 90.8267 223.938 90.32C223.352 89.7867 222.885 89.0133 222.538 88C222.192 86.9867 222.018 85.64 222.018 83.96L222.098 74.32H219.378V71C220.205 70.9733 221.005 70.6933 221.778 70.16C222.552 69.6267 223.205 68.9333 223.738 68.08C224.298 67.2267 224.672 66.3333 224.858 65.4H227.818L227.778 71H232.858V74.08L227.778 74.2L227.738 84.04C227.738 84.6533 227.792 85.2667 227.898 85.88C228.032 86.4667 228.272 86.96 228.618 87.36C228.965 87.7333 229.472 87.92 230.138 87.92C230.512 87.92 231.018 87.7867 231.658 87.52C232.325 87.2533 233.032 86.5867 233.778 85.52L235.698 87.32C234.978 88.3867 234.232 89.2133 233.458 89.8C232.685 90.3867 231.938 90.8133 231.218 91.08C230.525 91.3467 229.912 91.5067 229.378 91.56C228.845 91.6133 228.472 91.64 228.258 91.64ZM241.942 101.84C240.929 101.84 240.062 101.533 239.342 100.92C238.649 100.333 238.302 99.5467 238.302 98.56C238.302 97.84 238.529 97.2 238.982 96.64C239.462 96.1067 240.075 95.8267 240.822 95.8C241.409 95.7733 241.902 95.96 242.302 96.36C242.729 96.7867 242.942 97.36 242.942 98.08C242.942 98.16 242.942 98.24 242.942 98.32C242.942 98.4 242.929 98.4933 242.902 98.6C242.955 98.6 243.022 98.5867 243.102 98.56C243.342 98.48 243.595 98.2533 243.862 97.88C244.155 97.5333 244.435 97.0667 244.702 96.48C244.995 95.8667 245.275 95.1733 245.542 94.4C245.835 93.6533 246.089 92.8667 246.302 92.04L239.982 79.36C239.235 77.8667 238.742 76.7467 238.502 76C238.289 75.2267 238.142 74.5467 238.062 73.96L236.222 74.04V71H246.182V73.56C245.195 73.6667 244.649 74.04 244.542 74.68C244.462 75.32 244.582 75.9867 244.902 76.68L248.822 85.64C249.089 84.9467 249.435 83.88 249.862 82.44C250.289 80.9733 250.795 79.3867 251.382 77.68C251.489 77.3333 251.622 76.9333 251.782 76.48C251.969 76 252.169 75.5333 252.382 75.08C252.595 74.6 252.822 74.2133 253.062 73.92L250.782 74.04V71H257.902V73.56C257.075 73.7467 256.382 74.2533 255.822 75.08C255.289 75.9067 254.809 76.92 254.382 78.12L249.382 92.4C248.635 94.56 247.929 96.3333 247.262 97.72C246.595 99.1333 245.849 100.173 245.022 100.84C244.195 101.507 243.169 101.84 241.942 101.84ZM272.161 88.36C272.774 88.3333 273.281 88.2533 273.681 88.12C274.108 87.9867 274.428 87.68 274.641 87.2C274.881 86.72 275.001 85.9467 275.001 84.88V69.56C275.001 68.84 275.014 68.1467 275.041 67.48C275.094 66.8133 275.134 66.3067 275.161 65.96C274.734 65.9867 274.201 66.0133 273.561 66.04C272.921 66.04 272.454 66.0533 272.161 66.08V63C274.054 62.9733 275.948 62.96 277.841 62.96C279.734 62.96 281.628 62.9467 283.521 62.92C285.868 62.8933 287.908 63.2 289.641 63.84C291.401 64.48 292.748 65.4667 293.681 66.8C294.641 68.1333 295.094 69.8667 295.041 72C295.014 73.0667 294.761 74.12 294.281 75.16C293.801 76.1733 293.094 77.1067 292.161 77.96C291.228 78.7867 290.054 79.4667 288.641 80C287.228 80.5333 285.574 80.8267 283.681 80.88C283.094 80.9067 282.574 80.92 282.121 80.92C281.694 80.92 281.254 80.9067 280.801 80.88V84.4C280.801 85.1467 280.788 85.8533 280.761 86.52C280.734 87.1867 280.694 87.6933 280.641 88.04C280.934 88.0133 281.308 88 281.761 88C282.214 87.9733 282.654 87.96 283.081 87.96C283.534 87.9333 283.854 87.92 284.041 87.92V91H272.161V88.36ZM280.801 77.88C281.094 77.9067 281.388 77.9333 281.681 77.96C281.974 77.9867 282.281 78 282.601 78C284.068 78 285.254 77.76 286.161 77.28C287.094 76.7733 287.774 76.0533 288.201 75.12C288.628 74.16 288.841 73 288.841 71.64C288.841 70.3067 288.654 69.24 288.281 68.44C287.934 67.64 287.481 67.0533 286.921 66.68C286.361 66.28 285.774 66.0267 285.161 65.92C284.548 65.7867 283.988 65.72 283.481 65.72C282.921 65.72 282.441 65.7867 282.041 65.92C281.641 66.0533 281.334 66.3467 281.121 66.8C280.908 67.2533 280.801 67.9467 280.801 68.88V77.88ZM307.284 91.64C305.364 91.64 303.63 91.2267 302.084 90.4C300.537 89.5733 299.31 88.4 298.404 86.88C297.524 85.3333 297.084 83.52 297.084 81.44C297.084 79.2267 297.537 77.2933 298.444 75.64C299.377 73.96 300.604 72.6667 302.124 71.76C303.67 70.8267 305.35 70.36 307.164 70.36C309.084 70.36 310.804 70.7733 312.324 71.6C313.844 72.4267 315.044 73.6133 315.924 75.16C316.804 76.68 317.244 78.5067 317.244 80.64C317.244 82.88 316.817 84.8267 315.964 86.48C315.11 88.1333 313.937 89.4133 312.444 90.32C310.95 91.2 309.23 91.64 307.284 91.64ZM307.444 88.8C308.51 88.7733 309.31 88.4 309.844 87.68C310.404 86.96 310.79 86.0533 311.004 84.96C311.217 83.8667 311.324 82.76 311.324 81.64C311.324 80.6533 311.244 79.6533 311.084 78.64C310.95 77.6267 310.724 76.7067 310.404 75.88C310.084 75.0533 309.644 74.3867 309.084 73.88C308.55 73.3733 307.884 73.1333 307.084 73.16C306.044 73.1867 305.217 73.56 304.604 74.28C304.017 75 303.59 75.9067 303.324 77C303.084 78.0667 302.964 79.1867 302.964 80.36C302.964 81.72 303.11 83.0533 303.404 84.36C303.697 85.6667 304.164 86.7467 304.804 87.6C305.47 88.4267 306.35 88.8267 307.444 88.8ZM320.144 88.4C320.89 88.4 321.424 88.2533 321.744 87.96C322.09 87.6667 322.304 87.2533 322.384 86.72C322.464 86.16 322.504 85.5333 322.504 84.84V68.4C322.504 67.92 322.517 67.3733 322.544 66.76C322.57 66.12 322.61 65.5067 322.664 64.92C322.237 64.9467 321.73 64.9733 321.144 65C320.584 65 320.157 65.0133 319.864 65.04V62C321.117 62 322.157 61.9333 322.984 61.8C323.837 61.6667 324.504 61.5067 324.984 61.32C325.49 61.1333 325.837 60.96 326.024 60.8H328.184V84.56C328.184 84.9333 328.17 85.4667 328.144 86.16C328.117 86.8267 328.077 87.4667 328.024 88.08C328.477 88.0267 328.957 88 329.464 88C329.97 87.9733 330.357 87.96 330.624 87.96V91H320.144V88.4ZM334.045 88.4C334.791 88.4 335.325 88.2533 335.645 87.96C335.965 87.6667 336.165 87.2533 336.245 86.72C336.351 86.16 336.405 85.5333 336.405 84.84V78.2C336.405 77.72 336.418 77.1733 336.445 76.56C336.471 75.92 336.511 75.3067 336.565 74.72C336.138 74.7467 335.631 74.7733 335.045 74.8C334.485 74.8 334.058 74.8133 333.765 74.84V71.8C334.991 71.8 336.031 71.7333 336.885 71.6C337.738 71.4667 338.405 71.3067 338.885 71.12C339.391 70.9333 339.738 70.76 339.925 70.6H342.085V84.56C342.085 84.9333 342.071 85.4667 342.045 86.16C342.018 86.8267 341.978 87.4667 341.925 88.08C342.351 88.0267 342.818 88 343.325 88C343.858 87.9733 344.258 87.96 344.525 87.96V91H334.045V88.4ZM339.045 67.44C338.138 67.44 337.391 67.12 336.805 66.48C336.218 65.84 335.925 65.0667 335.925 64.16C335.925 63.2533 336.231 62.48 336.845 61.84C337.458 61.2 338.178 60.88 339.005 60.88C339.858 60.88 340.565 61.2 341.125 61.84C341.711 62.48 342.005 63.2533 342.005 64.16C342.005 65.0667 341.738 65.84 341.205 66.48C340.671 67.12 339.951 67.44 339.045 67.44ZM357.371 91.64C355.584 91.64 353.944 91.24 352.451 90.44C350.957 89.64 349.757 88.48 348.851 86.96C347.971 85.44 347.531 83.6 347.531 81.44C347.531 79.92 347.784 78.4933 348.291 77.16C348.797 75.8267 349.504 74.6533 350.411 73.64C351.344 72.6267 352.437 71.8267 353.691 71.24C354.971 70.6533 356.384 70.36 357.931 70.36C359.637 70.36 361.051 70.6267 362.171 71.16C363.317 71.6667 364.171 72.3467 364.731 73.2C365.317 74.0267 365.611 74.9067 365.611 75.84C365.611 76.6133 365.371 77.3067 364.891 77.92C364.437 78.5067 363.784 78.8133 362.931 78.84C361.917 78.8667 361.211 78.5867 360.811 78C360.411 77.3867 360.211 76.8 360.211 76.24C360.211 76 360.251 75.72 360.331 75.4C360.411 75.0533 360.531 74.7467 360.691 74.48C360.504 74.08 360.224 73.7867 359.851 73.6C359.477 73.4133 359.091 73.2933 358.691 73.24C358.317 73.16 358.011 73.1333 357.771 73.16C356.491 73.24 355.437 73.88 354.611 75.08C353.784 76.28 353.371 78.0133 353.371 80.28C353.371 81.6133 353.531 82.8667 353.851 84.04C354.197 85.1867 354.757 86.1333 355.531 86.88C356.304 87.6267 357.344 88.0267 358.651 88.08C359.771 88.1067 360.864 87.84 361.931 87.28C362.997 86.72 363.904 85.96 364.651 85L366.491 86.8C365.531 88.1333 364.531 89.1467 363.491 89.84C362.451 90.5333 361.411 91 360.371 91.24C359.357 91.5067 358.357 91.64 357.371 91.64ZM373.714 101.84C372.7 101.84 371.834 101.533 371.114 100.92C370.42 100.333 370.074 99.5467 370.074 98.56C370.074 97.84 370.3 97.2 370.754 96.64C371.234 96.1067 371.847 95.8267 372.594 95.8C373.18 95.7733 373.674 95.96 374.074 96.36C374.5 96.7867 374.714 97.36 374.714 98.08C374.714 98.16 374.714 98.24 374.714 98.32C374.714 98.4 374.7 98.4933 374.674 98.6C374.727 98.6 374.794 98.5867 374.874 98.56C375.114 98.48 375.367 98.2533 375.634 97.88C375.927 97.5333 376.207 97.0667 376.474 96.48C376.767 95.8667 377.047 95.1733 377.314 94.4C377.607 93.6533 377.86 92.8667 378.074 92.04L371.754 79.36C371.007 77.8667 370.514 76.7467 370.274 76C370.06 75.2267 369.914 74.5467 369.834 73.96L367.994 74.04V71H377.954V73.56C376.967 73.6667 376.42 74.04 376.314 74.68C376.234 75.32 376.354 75.9867 376.674 76.68L380.594 85.64C380.86 84.9467 381.207 83.88 381.634 82.44C382.06 80.9733 382.567 79.3867 383.154 77.68C383.26 77.3333 383.394 76.9333 383.554 76.48C383.74 76 383.94 75.5333 384.154 75.08C384.367 74.6 384.594 74.2133 384.834 73.92L382.554 74.04V71H389.674V73.56C388.847 73.7467 388.154 74.2533 387.594 75.08C387.06 75.9067 386.58 76.92 386.154 78.12L381.154 92.4C380.407 94.56 379.7 96.3333 379.034 97.72C378.367 99.1333 377.62 100.173 376.794 100.84C375.967 101.507 374.94 101.84 373.714 101.84Z" fill="#F4BE4F"/>
</svg>
