<svg width="94" height="22" viewBox="0 0 94 22" fill="none" xmlns="http://www.w3.org/2000/svg">
<path d="M12.848 1.616C14.624 1.616 16.168 1.952 17.48 2.624C18.792 3.296 19.8 4.24 20.504 5.456C21.208 6.656 21.56 8.048 21.56 9.632C21.56 10.896 21.352 12.112 20.936 13.28C20.52 14.432 19.912 15.368 19.112 16.088C18.328 16.808 17.408 17.168 16.352 17.168C15.552 17.168 14.936 16.968 14.504 16.568C14.072 16.168 13.824 15.624 13.76 14.936C13.264 15.624 12.632 16.168 11.864 16.568C11.112 16.968 10.312 17.168 9.464 17.168C8.248 17.168 7.288 16.8 6.584 16.064C5.896 15.312 5.552 14.304 5.552 13.04C5.552 11.84 5.8 10.72 6.296 9.68C6.808 8.64 7.512 7.808 8.408 7.184C9.304 6.544 10.32 6.224 11.456 6.224C12.976 6.224 14 6.8 14.528 7.952L14.792 6.464H16.688L15.488 13.4C15.44 13.704 15.416 13.984 15.416 14.24C15.416 15.2 15.84 15.68 16.688 15.68C17.328 15.68 17.88 15.376 18.344 14.768C18.824 14.16 19.184 13.4 19.424 12.488C19.664 11.56 19.784 10.648 19.784 9.752C19.784 7.656 19.152 6.032 17.888 4.88C16.64 3.728 14.872 3.152 12.584 3.152C10.68 3.152 8.96 3.616 7.424 4.544C5.904 5.456 4.712 6.712 3.848 8.312C2.984 9.912 2.552 11.68 2.552 13.616C2.536 15.728 3.168 17.352 4.448 18.488C5.728 19.64 7.504 20.216 9.776 20.216C11.28 20.216 12.608 19.944 13.76 19.4L14.048 20.888C12.624 21.48 11.056 21.776 9.344 21.776C7.632 21.776 6.12 21.448 4.808 20.792C3.512 20.152 2.504 19.224 1.784 18.008C1.08 16.808 0.728 15.408 0.728 13.808C0.728 11.552 1.248 9.496 2.288 7.64C3.328 5.768 4.768 4.296 6.608 3.224C8.464 2.152 10.544 1.616 12.848 1.616ZM10.112 15.464C10.832 15.464 11.496 15.256 12.104 14.84C12.712 14.408 13.192 13.832 13.544 13.112C13.896 12.376 14.072 11.576 14.072 10.712C14.072 9.88 13.84 9.208 13.376 8.696C12.928 8.168 12.288 7.904 11.456 7.904C10.688 7.904 10.008 8.136 9.416 8.6C8.84 9.048 8.392 9.648 8.072 10.4C7.752 11.136 7.592 11.904 7.592 12.704C7.592 13.552 7.808 14.224 8.24 14.72C8.672 15.216 9.296 15.464 10.112 15.464ZM40.3591 17L36.3751 10.16H33.7351V17H31.5511V0.271999H36.9511C38.2151 0.271999 39.2791 0.487999 40.1431 0.92C41.0231 1.352 41.6791 1.936 42.1111 2.672C42.5431 3.408 42.7591 4.248 42.7591 5.192C42.7591 6.344 42.4231 7.36 41.7511 8.24C41.0951 9.12 40.1031 9.704 38.7751 9.992L42.9751 17H40.3591ZM33.7351 8.408H36.9511C38.1351 8.408 39.0231 8.12 39.6151 7.544C40.2071 6.952 40.5031 6.168 40.5031 5.192C40.5031 4.2 40.2071 3.432 39.6151 2.888C39.0391 2.344 38.1511 2.072 36.9511 2.072H33.7351V8.408ZM56.0407 13.28H48.7447L47.4007 17H45.0967L51.1447 0.368H53.6647L59.6887 17H57.3847L56.0407 13.28ZM55.4167 11.504L52.3927 3.056L49.3687 11.504H55.4167ZM75.4766 17H73.2926L64.5086 3.68V17H62.3246V0.248H64.5086L73.2926 13.544V0.248H75.4766V17ZM84.4076 0.271999C86.2316 0.271999 87.8076 0.615999 89.1356 1.304C90.4796 1.976 91.5036 2.944 92.2076 4.208C92.9276 5.472 93.2876 6.96 93.2876 8.672C93.2876 10.384 92.9276 11.872 92.2076 13.136C91.5036 14.384 90.4796 15.344 89.1356 16.016C87.8076 16.672 86.2316 17 84.4076 17H79.1996V0.271999H84.4076ZM84.4076 15.2C86.5676 15.2 88.2156 14.632 89.3516 13.496C90.4876 12.344 91.0556 10.736 91.0556 8.672C91.0556 6.592 90.4796 4.968 89.3276 3.8C88.1916 2.632 86.5516 2.048 84.4076 2.048H81.3836V15.2H84.4076Z" fill="white"/>
</svg>
